<svg height="267" viewBox="0 0 641 267" width="641" xmlns="http://www.w3.org/2000/svg" xmlns:xlink="http://www.w3.org/1999/xlink"><defs><circle id="a" cx="46.924492" cy="46" r="46"/><filter id="b" height="127.2%" width="127.2%" x="-12.5%" y="-12.5%"><feOffset dx="1" dy="1" in="SourceAlpha" result="shadowOffsetOuter1"/><feGaussianBlur in="shadowOffsetOuter1" result="shadowBlurOuter1" stdDeviation="4"/><feComposite in="shadowBlurOuter1" in2="SourceAlpha" operator="out" result="shadowBlurOuter1"/><feColorMatrix in="shadowBlurOuter1" type="matrix" values="0 0 0 0 0   0 0 0 0 0   0 0 0 0 0  0 0 0 0.2 0"/></filter><mask id="c" fill="#fff"><path d="m.12507865 27.7825 7.83941573 10.1515 35.56386522-27.4105-7.8394158-10.152z" fill="none"/></mask><mask id="d" fill="#fff"><path d="m.12507865 27.7825 7.83941573 10.1515 35.56386522-27.4105-7.8394158-10.152z" fill="none"/></mask></defs><g fill="none" fill-rule="evenodd" transform="translate(-13 -4)"><g transform="translate(57 24)"><g transform="translate(30 28)"><path d="m144.672674 47.2633972c-2.47046 4.3862832-2.536774 9.6688531-2.539743 14.6985105-.00297 4.0663217-.265753 42.7180703 33.19383 32.2234301 10.857749-3.4051993 19.892841-14.519056 19.949753-25.8587098.041075-8.1449686-5.726795-15.4316119-12.784331-19.5432902-8.871781-5.1686854-31.002486-13.6247413-37.819509-1.5199406" fill="#a2ca83" opacity=".207729"/><g fill="#60bdc6"><path d="m43.5104737 5.17775664c-5.2526958 2.43249651-9.9956614 5.87122026-15.3022996 8.18539506-5.6490976 2.463063-12.3161711 3.9484931-15.7942139 9.020549-2.3942475 3.4904895-2.70453955 7.9497378-2.9371349 12.1723427-.90217302 16.356493-18.64771349 20.376472-1.74891907 67.4191996 3.12815997 8.70601 9.01084277 16.124286 16.02334507 22.181863 8.7262847 7.538077 18.8224075 14.03443 30.1903814 16.068577 11.367974 2.034147 24.1706159-1.136381 31.4211573-10.092839 9.7210009-12.007185 6.89472-29.308773 5.7856855-44.6945349-.9175144-12.7240175-.2162642-25.8902622 4.9409191-37.5705839 6.4478404-14.6023742 21.8496114-30.7769476 3.1786381-41.44167485-14.6030288-8.34167832-40.8674976-8.14398252-55.757559-1.24829371" opacity=".349516"/><path d="m382.478802 12.720172c-4.836994 4.4710804-7.474229 10.7445944-10.477678 16.5980665-3.802687 7.4108811-8.495174 14.5353251-14.944994 19.8277552-12.819468 10.5183042-31.313767 12.8472692-42.928193 24.675-2.141362 2.1795839-4.048644 4.7599825-4.614791 7.757958-1.176833 6.2232273 3.805161 12.1126889 9.493849 14.939098 5.688689 2.824437 12.174635 3.6117693 18.092949 5.9215073 10.525187 4.10872 18.520529 12.676195 27.472975 19.552657 8.953436 6.875969 20.596566 12.34736 31.32416 8.797217 8.917805-2.950647 14.737142-11.284437 22.212361-16.955004 7.867661-5.968835 17.70397-9.035339 25.287568-15.3601256 21.495275-17.9267203 18.47302-57.2883986 1.709329-77.5968357-12.264704-14.86021675-47.852287-21.81605241-62.627535-8.1572937" opacity=".349516"/></g></g><g font-family="CiscoSansTT"><text fill="#000" font-size="2.5669"><tspan x="201.752641" y="51">.</tspan></text><text fill="#000" font-size="2.5667"><tspan x="203.752641" y="53">.</tspan></text><text fill="#000" font-size="2.5669"><tspan x="206.752641" y="55">.</tspan></text><text fill="#000" font-size="2.5667"><tspan x="208.752641" y="57">.</tspan></text><text fill="#000" font-size="2.567"><tspan x="210.752641" y="59">.</tspan></text><text fill="#000" font-size="2.5669"><tspan x="213.752641" y="60">.</tspan></text><text fill="#000" font-size="2.5669"><tspan x="215.752641" y="62">.</tspan></text><text fill="#000" font-size="2.5669"><tspan x="218.752641" y="64">.</tspan></text><text fill="#000" font-size="2.5669"><tspan x="220.752641" y="66">.</tspan></text><text fill="#000" font-size="2.567"><tspan x="222.752641" y="68">.</tspan></text><text fill="#000" font-size="2.567"><tspan x="225.752641" y="69">.</tspan></text><text fill="#000" font-size="2.5669"><tspan x="227.752641" y="71">.</tspan></text><text fill="#000" font-size="2.5669"><tspan x="229.752641" y="73">.</tspan></text><text fill="#000" font-size="2.5669"><tspan x="232.752641" y="75">.</tspan></text><text fill="#000" font-size="2.5669"><tspan x="234.752641" y="77">.</tspan></text><text fill="#000" font-size="2.5669"><tspan x="237.752641" y="78">.</tspan></text><text fill="#000" font-size="2.5669"><tspan x="239.752641" y="80">.</tspan></text><text fill="#000" font-size="2.5669"><tspan x="241.752641" y="82">.</tspan></text><text fill="#000" font-size="2.567"><tspan x="244.752641" y="84">.</tspan></text><text fill="#000" font-size="2.5669"><tspan x="246.752641" y="86">.</tspan></text><text fill="#000" font-size="2.5669"><tspan x="249.752641" y="88">.</tspan></text><text fill="#000" font-size="2.5669"><tspan x="251.752641" y="89">.</tspan></text><text fill="#000" font-size="2.5669"><tspan x="253.752641" y="91">.</tspan></text><text fill="#000" font-size="2.5669"><tspan x="256.752641" y="93">.</tspan></text><text fill="#000" font-size="2.5669"><tspan x="258.752641" y="95">.</tspan></text><text fill="#000" font-size="2.567"><tspan x="260.752641" y="97">.</tspan></text><text fill="#000" font-size="2.5669"><tspan x="263.752641" y="98">.</tspan></text><text fill="#000" font-size="2.5669"><tspan x="265.752641" y="100">.</tspan></text><text fill="#000" font-size="2.5669"><tspan x="268.752641" y="102">.</tspan></text><text fill="#000" font-size="2.5669"><tspan x="270.752641" y="104">.</tspan></text><text fill="#000" font-size="2.5669"><tspan x="272.752641" y="106">.</tspan></text><text fill="#000" font-size="2.5669"><tspan x="275.752641" y="107">.</tspan></text><text fill="#000" font-size="2.5669"><tspan x="277.752641" y="109">.</tspan></text><text fill="#000" font-size="2.5669"><tspan x="279.752641" y="111">.</tspan></text><text fill="#000" font-size="2.567"><tspan x="282.752641" y="113">.</tspan></text><text fill="#000" font-size="2.5669"><tspan x="284.752641" y="115">.</tspan></text><text fill="#000" font-size="2.5669"><tspan x="287.752641" y="116">.</tspan></text><text fill="#000" font-size="2.5669"><tspan x="289.752641" y="118">.</tspan></text><text fill="#000" font-size="2.567"><tspan x="291.752641" y="120">.</tspan></text><text fill="#000" font-size="2.567"><tspan x="294.752641" y="122">.</tspan></text><text fill="#000" font-size="2.5669"><tspan x="296.752641" y="124">.</tspan></text><text fill="#000" font-size="2.5669"><tspan x="299.752641" y="125">.</tspan></text><text fill="#000" font-size="2.5669"><tspan x="301.752641" y="127">.</tspan></text><text fill="#000" font-size="2.5669"><tspan x="303.752641" y="129">.</tspan></text><text fill="#000" font-size="2.5669"><tspan x="306.752641" y="131">.</tspan></text><text fill="#000" font-size="2.5669"><tspan x="308.752641" y="133">.</tspan></text><text fill="#000" font-size="2.5669"><tspan x="310.752641" y="135">.</tspan></text><text fill="#000" font-size="2.5669"><tspan x="313.752641" y="136">.</tspan></text><text fill="#000" font-size="2.5669"><tspan x="315.752641" y="138">.</tspan></text><text fill="#000" font-size="2.567"><tspan x="318.752641" y="140">.</tspan></text><text fill="#000" font-size="2.5669"><tspan x="320.752641" y="142">.</tspan></text><text fill="#000" font-size="2.567"><tspan x="322.752641" y="144">.</tspan></text><text fill="#000" font-size="2.5669"><tspan x="325.752641" y="145">.</tspan></text><text fill="#000" font-size="2.5669"><tspan x="327.752641" y="147">.</tspan></text><text fill="#000" font-size="2.5669"><tspan x="330.752641" y="149">.</tspan></text><text fill="#000" font-size="2.5669"><tspan x="332.752641" y="151">.</tspan></text><text fill="#000" font-size="2.5669"><tspan x="334.752641" y="153">.</tspan></text><text fill="#000" font-size="2.5669"><tspan x="337.752641" y="154">.</tspan></text><text fill="#000" font-size="2.5669"><tspan x="339.752641" y="156">.</tspan></text><text fill="#000" font-size="2.5669"><tspan x="341.752641" y="158">.</tspan></text><text fill="#000" font-size="2.567"><tspan x="344.752641" y="160">.</tspan></text><text fill="#000" font-size="2.5669"><tspan x="346.752641" y="162">.</tspan></text><text fill="#000" font-size="2.5669"><tspan x="349.752641" y="163">.</tspan></text><text fill="#000" font-size="2.567"><tspan x="351.752641" y="165">.</tspan></text><text fill="#000" font-size="2.567"><tspan x="353.752641" y="167">.</tspan></text></g><g transform="translate(221 122)"><path d="m43.5286562 10.52315-35.56435957 27.411-7.83941573-10.152 35.5643595-27.411z" fill="#333" mask="url(#c)"/><g fill="#ff0"><path d="m2.30777528 55.165h3.46067416v-63h-3.46067416z" mask="url(#d)"/><path d="m8.73474157 55.165h3.46067413v-63h-3.46067413z" mask="url(#d)"/><path d="m15.1617079 55.165h3.4606741v-63h-3.4606741z" mask="url(#d)"/><path d="m21.5886742 55.165h3.4606741v-63h-3.4606741z" mask="url(#d)"/><path d="m28.0156404 55.165h3.4606742v-63h-3.4606742z" mask="url(#d)"/><path d="m34.4426067 55.165h3.4606742v-63h-3.4606742z" mask="url(#d)"/><path d="m40.869573 55.165h3.4606742v-63h-3.4606742z" mask="url(#d)"/></g></g><path d="m265.369041 98.407584s114.759466-96.466095 168.034354-96.466095c53.273898 0 96.461151 43.189245 96.461151 96.466095" stroke="#6d6e70" stroke-linecap="round" stroke-width="12"/><path d="m172.15791 164.979243c46.998082-28.32786 92.493909-66.57156 92.493909-66.57156" stroke="#6d6e70" stroke-linecap="round" stroke-width="12"/><path d="m173.196471 32.463783c-27.976604-16.95672-56.600639-30.522195-76.5784126-30.522195-53.2748876 0-96.46214059 43.189245-96.46214059 96.466095 0 53.277345 43.18725299 96.46659 96.46214059 96.46659 19.7302846 0 47.8949806-13.23234 75.5399506-29.89503" stroke="#cbd4d7" stroke-linecap="round" stroke-width="12"/><path d="m529.864744 98.407584c0 53.277345-43.187253 96.46659-96.461646 96.46659-53.274888 0-168.033859-96.46659-168.033859-96.46659" stroke="#a6a8ab" stroke-linecap="round" stroke-width="12"/><path d="m173.196471 164.35183c-27.976604 16.95672-56.600639 30.522195-76.5784126 30.522195-53.2748876 0-96.46214059-43.189245-96.46214059-96.4665895 0-53.27685 43.18725299-96.466095 96.46214059-96.466095 19.7307796 0 47.8964656 13.232835 75.5419306 29.89602" stroke="#cbd4d7" stroke-linecap="round" stroke-width="12"/><path d="m265.369041 98.407584s114.759466-96.466095 168.034354-96.466095c53.273898 0 96.461151 43.189245 96.461151 96.466095" stroke="#6d6e70" stroke-linecap="round" stroke-width="12"/><path d="m172.748368 32.192622c46.794152 28.29123 92.620623 66.21516 92.620623 66.21516s114.759467 96.466095 168.034355 96.466095c53.273897 0 96.46115-43.189245 96.46115-96.466095" stroke="#a6a8ab" stroke-linecap="round" stroke-width="12"/><path d="m190.088755 42.162714 1.895268 1.24938-1.232494 1.870605-1.895267-1.24938z" fill="#000"/><path d="m194.403867 45.0196065 1.886853 1.262745-1.246847 1.861695-1.886358-1.262745z" fill="#000"/><path d="m198.705417 47.911743 1.877448 1.275615-1.258727 1.85328-1.877943-1.27611z" fill="#000"/><path d="m202.993453 50.836302 1.869529 1.288485-1.271101 1.84437-1.869034-1.287495z" fill="#000"/><path d="m207.25491 53.7840765 1.861609 1.29987-1.282981 1.836945-1.861114-1.29987z" fill="#000"/><path d="m211.495082 56.7550665 1.853195 1.310265-1.293376 1.82952-1.853194-1.31076z" fill="#000"/><path d="m215.71303 59.748282 1.84577 1.32165-1.30377 1.8216-1.846265-1.321155z" fill="#000"/><path d="m219.924197 62.7723855 1.83884 1.33155-1.313669 1.814175-1.838841-1.331055z" fill="#000"/><path d="m224.122791 65.8221795 1.831416 1.341945-1.323569 1.80675-1.831416-1.34145z" fill="#000"/><path d="m228.296736 68.8892985 1.824981 1.350855-1.333469 1.80081-1.824486-1.350855z" fill="#000"/><path d="m232.460038 71.982108 1.817556 1.36026-1.342378 1.793385-1.817556-1.36026z" fill="#000"/><path d="m236.59874 75.087936 1.810627 1.369665-1.351288 1.786455-1.810626-1.369665z" fill="#000"/><path d="m240.72581 78.219405 1.803697 1.378575-1.360197 1.78002-1.804192-1.378575z" fill="#000"/><path d="m244.838823 81.3726045 1.796767 1.38798-1.369602 1.77309-1.796767-1.38798z" fill="#000"/><path d="m248.934017 84.5446635 1.789342 1.397385-1.379006 1.765665-1.788848-1.397385z" fill="#000"/><path d="m253.008867 87.736572 1.781918 1.407285-1.388411 1.75824-1.781918-1.40679z" fill="#000"/><path d="m257.077431 90.9603585 1.773008 1.41768-1.398806 1.749825-1.773008-1.41768z" fill="#000"/><path d="m261.120404 94.2048855 1.762119 1.43154-1.41217 1.738935-1.762614-1.431045z" fill="#000"/><path d="m265.095912 97.4678265 1.750735 1.444905-1.425535 1.7280445-1.751229-1.4449045z" fill="#000"/><path d="m269.078944 100.737549 1.763604 1.430055-1.411675 1.73943-1.763109-1.42956z" fill="#000"/><path d="m273.0842 103.973908 1.772514 1.418175-1.400291 1.74933-1.772018-1.41867z" fill="#000"/><path d="m277.114601 107.189973 1.780928 1.408275-1.389896 1.75725-1.780927-1.408275z" fill="#000"/><path d="m281.164307 110.381337 1.787857 1.398375-1.379501 1.76517-1.788353-1.39887z" fill="#000"/><path d="m285.235296 113.554881 1.796272 1.38897-1.370592 1.7721-1.795777-1.388475z" fill="#000"/><path d="m289.313066 116.698874 1.803697 1.378574-1.360692 1.78002-1.803697-1.37907z" fill="#000"/><path d="m293.418357 119.828412 1.810627 1.369665-1.350793 1.786455-1.810626-1.36917z" fill="#000"/><path d="m297.538201 122.934735 1.818546 1.35927-1.341388 1.794375-1.818546-1.35927z" fill="#000"/><path d="m301.675913 126.018832 1.825476 1.34937-1.330994 1.801305-1.825476-1.348875z" fill="#000"/><path d="m305.819862 129.071002 1.833395 1.338975-1.321094 1.809225-1.833395-1.338975z" fill="#000"/><path d="m309.992371 132.108174 1.841315 1.328085-1.3107 1.817145-1.84082-1.328085z" fill="#000"/><path d="m314.172602 135.112972 1.849234 1.3167-1.299315 1.825066-1.849234-1.3167z" fill="#000"/><path d="m318.379908 138.097476 1.857649 1.305315-1.288426 1.832985-1.857649-1.305315z" fill="#000"/><path d="m322.598351 141.051042 1.866558 1.29294-1.276546 1.841895-1.865569-1.29294z" fill="#000"/><path d="m326.840948 143.978967 1.874479 1.28007-1.263182 1.85031-1.874478-1.28007z" fill="#000"/><path d="m331.096564 146.873083 1.884378 1.266705-1.250312 1.858725-1.883388-1.26621z" fill="#000"/><path d="m335.380245 149.739629 1.893783 1.25235-1.235463 1.869119-1.893783-1.252844z" fill="#000"/><path d="m339.676993 152.567514 1.903682 1.23651-1.220613 1.87902-1.903682-1.237005z" fill="#000"/><path d="m343.995471 155.360106 1.914572 1.22067-1.20428 1.88892-1.914571-1.22067z" fill="#000"/><path d="m348.336668 158.113048 1.925461 1.203345-1.18745 1.89981-1.924471-1.203345z" fill="#000"/><path d="m352.69816 160.82253 1.936845 1.18404-1.168146 1.91169-1.936845-1.184535z" fill="#000"/><path d="m172.351991 164.966225c-16.505014-17.31114-26.638187-40.75137-26.638187-66.5586905 0-25.7499 10.088625-49.1436 26.529292-66.443355" stroke="#cbd4d7" stroke-linecap="round" stroke-width="12"/><path d="m181.036563 153.772641-1.810131-2.685375 2.685746-1.810215 1.809636 2.685375z" fill="#fff"/><path d="m182.870503 156.492715-1.810626-2.68587 2.685746-1.810215 1.810131 2.68587z" fill="#231f20"/><path d="m184.712907 159.226353-1.810131-2.68587 2.684756-1.810215 1.810626 2.685375z" fill="#fff"/><path d="m186.546104 161.945932-1.810131-2.685375 2.685746-1.81071 1.809637 2.686365z" fill="#231f20"/><path d="m188.388954 164.67957-1.810627-2.685375 2.685747-1.81071 1.810131 2.68587z" fill="#fff"/><path d="m178.383089 155.571372-1.810131-2.685375 2.685746-1.81071 1.809637 2.68587z" fill="#231f20"/><path d="m180.225939 158.30496-1.810626-2.685375 2.685746-1.81071 1.810131 2.68587z" fill="#fff"/><path d="m182.059384 161.024589-1.810132-2.685375 2.685252-1.810215 1.810131 2.68587z" fill="#231f20"/><path d="m183.901788 163.758672-1.810132-2.68587 2.685747-1.810215 1.809636 2.685375z" fill="#fff"/><path d="m185.73548 166.478301-1.810626-2.68587 2.685746-1.810215 1.810132 2.68587z" fill="#231f20"/><path d="m209.207001 146.774974-.994409.752895-5.675904-7.499249.99441-.7524z" fill="#fff"/><path d="m212.394852 144.67266-.994409.752895-5.675904-7.49925.994409-.7524z" fill="#fff"/><path d="m215.433368 142.372642-.994409.752895-5.675903-7.49925.994409-.7524z" fill="#fff"/><path d="m218.471884 140.072625-.994904.752895-5.675408-7.49925.994409-.7524z" fill="#fff"/><path d="m221.510401 137.773102-.994904.752895-5.675904-7.499745.994905-.7524z" fill="#fff"/><path d="m224.548868 135.473134-.994905.752895-5.675903-7.49925.994904-.7524z" fill="#fff"/><path d="m227.586889 133.173117-.994409.752895-5.675903-7.49925.994904-.7524z" fill="#fff"/><path d="m230.625405 130.873099-.994409.752895-5.675903-7.49925.994409-.7524z" fill="#fff"/><path d="m233.663922 128.573577-.994409.752895-5.675904-7.499745.994409-.7524z" fill="#fff"/><path d="m236.702388 126.273559-.994409.752895-5.675903-7.49925.994409-.752399z" fill="#fff"/><path d="m239.740905 123.973542-.994409.752895-5.675903-7.49925.994409-.7524z" fill="#fff"/><path d="m242.779421 121.673524-.994409.752895-5.675903-7.49925.994409-.7524z" fill="#fff"/><path d="m245.817938 119.374002-.99441.752895-5.675903-7.499745.994409-.7524z" fill="#fff"/><path d="m248.856404 117.073984-.994409.752895-5.675903-7.499249.994409-.752895z" fill="#fff"/><path d="m251.894921 114.774016-.994409.752895-5.675904-7.49925.99441-.7524z" fill="#fff"/><path d="m254.933437 112.473999-.994904.752895-5.675408-7.49925.994409-.7524z" fill="#fff"/><path d="m379.362679 21.6177885c0 2.18691-1.772514 3.96-3.959818 3.96-2.186809 0-3.959817-1.77309-3.959817-3.96s1.773008-3.959505 3.959817-3.959505c2.187304 0 3.959818 1.772595 3.959818 3.959505" fill="#fff"/><path d="m334.399497 49.4199585c0 2.186415-1.772513 3.959505-3.959817 3.959505-2.186809 0-3.959818-1.77309-3.959818-3.959505 0-2.187405 1.773009-3.96 3.959818-3.96 2.187304 0 3.959817 1.772595 3.959817 3.96" fill="#fff"/><path d="m488.534596 16.5314655c0 2.187405-1.773009 3.96-3.959323 3.96-2.187799 0-3.960312-1.772595-3.960312-3.96 0-2.186415 1.772513-3.959505 3.960312-3.959505 2.186314 0 3.959323 1.77309 3.959323 3.959505" fill="#fff"/><path d="m460.009606 4.410747c0 2.187405-1.772513 3.96-3.959818 3.96-2.186809 0-3.959817-1.772595-3.959817-3.96 0-2.186415 1.773008-3.95901 3.959817-3.95901 2.187305 0 3.959818 1.772595 3.959818 3.95901" fill="#fff"/><g transform="translate(407.861187 1.485)"><path d="m8.04956621 4.406391c0 2.187405-1.77300822 3.96-3.95981735 3.96-2.18730411 0-3.95981735-1.772595-3.95981735-3.96 0-2.186415 1.77251324-3.959505 3.95981735-3.959505 2.18680913 0 3.95981735 1.77309 3.95981735 3.959505" fill="#d6de23"/><path d="m8.04956621 4.406391c0 2.187405-1.77300822 3.96-3.95981735 3.96-2.18730411 0-3.95981735-1.772595-3.95981735-3.96 0-2.186415 1.77251324-3.959505 3.95981735-3.959505 2.18680913 0 3.95981735 1.77309 3.95981735 3.959505" stroke="#fff" stroke-width="2"/></g><path d="m533.154115 109.619037c0 2.18691-1.772514 3.96-3.959818 3.96-2.186809 0-3.959817-1.77309-3.959817-3.96s1.773008-3.959505 3.959817-3.959505c2.187304 0 3.959818 1.772595 3.959818 3.959505" fill="#fff"/><path d="m517.454528 152.281849c0 2.18691-1.772514 3.959505-3.959323 3.959505-2.187304 0-3.960312-1.772595-3.960312-3.959505 0-2.187405 1.773008-3.96 3.960312-3.96 2.186809 0 3.959323 1.772595 3.959323 3.96" fill="#fff"/><path d="m476.777947 186.680488c0 2.18691-1.772513 3.959505-3.959322 3.959505-2.187304 0-3.960312-1.772595-3.960312-3.959505s1.773008-3.96 3.960312-3.96c2.186809 0 3.959322 1.77309 3.959322 3.96" fill="#fff"/><path d="m513.958256 45.3222c-3.011936-4.692105-7.129651-9.328275-10.434118-13.158585" stroke="#a6a8ab" stroke-width="4.153"/><path d="m507.747827 31.643964-3.635607 1.37511-1.533934 3.571425-3.277739-8.60112z" fill="#a6a8ab"/><g transform="translate(141.56347 94.05)"><path d="m8.07708694 4.357584c0 2.18691-1.77300822 3.96-3.95981735 3.96s-3.95981735-1.77309-3.95981735-3.96 1.77300822-3.959505 3.95981735-3.959505 3.95981735 1.772595 3.95981735 3.959505" fill="#d6de23"/><path d="m8.07708694 4.357584c0 2.18691-1.77300822 3.96-3.95981735 3.96s-3.95981735-1.77309-3.95981735-3.96 1.77300822-3.959505 3.95981735-3.959505 3.95981735 1.772595 3.95981735 3.959505" stroke="#fff" stroke-width="2"/></g><g transform="translate(168.292237 160.875)"><path d="m7.95047178 4.0907295c0 2.187405-1.77300822 3.96-3.95981735 3.96s-3.95981735-1.772595-3.95981735-3.96c0-2.186415 1.77300822-3.959505 3.95981735-3.959505s3.95981735 1.77309 3.95981735 3.959505" fill="#d6de23"/><path d="m7.95047178 4.0907295c0 2.187405-1.77300822 3.96-3.95981735 3.96s-3.95981735-1.772595-3.95981735-3.96c0-2.186415 1.77300822-3.959505 3.95981735-3.959505s3.95981735 1.77309 3.95981735 3.959505" stroke="#fff" stroke-width="2"/></g><g transform="translate(168.292237 27.72)"><path d="m8.02075854 4.2439815c0 2.18691-1.77300822 3.96-3.95981735 3.96-2.18680914 0-3.95981735-1.77309-3.95981735-3.96s1.77300821-3.959505 3.95981735-3.959505c2.18680913 0 3.95981735 1.772595 3.95981735 3.959505" fill="#d6de23"/><path d="m8.02075854 4.2439815c0 2.18691-1.77300822 3.96-3.95981735 3.96-2.18680914 0-3.95981735-1.77309-3.95981735-3.96s1.77300821-3.959505 3.95981735-3.959505c2.18680913 0 3.95981735 1.772595 3.95981735 3.959505" stroke="#fff" stroke-width="2"/></g><path d="m18.1158179 48.638799c0 2.761605-2.8258247 4.862385-5.7432201 3.568455-.7988931-.35442-1.4319689-.987525-1.7858776-1.78695-1.29189043-2.916045.8082977-5.74101 3.5697753-5.74101 2.1863142 0 3.9593224 1.77309 3.9593224 3.959505" fill="#fff"/><path d="m38.9643553 173.010469c0 2.187405-1.7730083 3.96-3.9593224 3.96-2.1873041 0-3.9603124-1.772595-3.9603124-3.96 0-2.186415 1.7730083-3.959505 3.9603124-3.959505 2.1863141 0 3.9593224 1.77309 3.9593224 3.959505" fill="#fff"/><g transform="translate(418.750685 189.585)"><path d="m7.95675799 4.030785c0 2.18691-1.77251324 3.96-3.95981735 3.96-2.18680913 0-3.95981735-1.77309-3.95981735-3.96s1.77300822-3.959505 3.95981735-3.959505c2.18730411 0 3.95981735 1.772595 3.95981735 3.959505" fill="#d6de23"/><path d="m7.95675799 4.030785c0 2.18691-1.77251324 3.96-3.95981735 3.96-2.18680913 0-3.95981735-1.77309-3.95981735-3.96s1.77300822-3.959505 3.95981735-3.959505c2.18730411 0 3.95981735 1.772595 3.95981735 3.959505" stroke="#fff" stroke-width="2"/></g></g><g transform="translate(327 203)"><rect fill="#23cfe4" height="36" rx="7" stroke="#fff" stroke-width="2" width="91" x="1" y="1"/><text fill="#fff" font-family="CiscoSansTT-BoldOblique, CiscoSansTT" font-size="15" font-style="italic" font-weight="bold"><tspan x="15.4075" y="24">onboard</tspan></text></g><g style="fill:#000;fill-opacity:.74958;font-family:CiscoSansTT-BoldOblique, CiscoSansTT;font-size:15;font-style:italic;font-weight:bold;opacity:.598275"><text><tspan x="305.13" y="73">advocate</tspan></text><text><tspan x="335.9075" y="43">recommend</tspan></text><text><tspan x="505.3125" y="15">optimize</tspan></text><text><tspan x="553.715" y="37">adopt</tspan></text><text><tspan x="599.7375" y="139">engage</tspan></text><text><tspan x="582.5925" y="187">use</tspan></text><text><tspan x="538.985" y="229">implement</tspan></text><text><tspan x="13.8675" y="76">select</tspan></text><text><tspan x="20.6375" y="213">evaluate</tspan></text><text><tspan x="223.2" y="212">need</tspan></text><text><tspan x="215.7975" y="127">expand</tspan></text><text><tspan x="425.61" y="18">renew</tspan></text><text><tspan x="211.145" y="44">purchase</tspan></text></g><g transform="translate(425 170)"><use fill="#000" filter="url(#b)" xlink:href="#a"/><use fill="#fff" fill-opacity=".8" fill-rule="evenodd" xlink:href="#a"/></g><g transform="matrix(.82903757 .5591929 -.5591929 .82903757 455.785452 181.92735)"><g fill="#4c4c4c"><path d="m49.6046708 8.8358501-.1297642-.43627789c-.1110861-.37381083.1012554-.77340172.4728529-.88544581l3.1251551-.94493826c.3715975-.11204409.7667886.10113715.8778746.47593952l.1297642.43627789c.1110861.37480238-.1012554.77241018-.4728529.88544582l-3.1251551.94493825c-.3715975.11303564-.7667886-.10212869-.8778746-.47593952"/><path d="m6.39277896 24.3772167-.74517829-2.4883826c-.18786007-.6241832.17011774-1.2901178.79631798-1.477999l2.47766562-.7431747c.62411291-.1868374 1.28997253.1701369 1.47783253.7964077l.746222 2.4873388c.1868164.6252269-.1711614 1.2901178-.796318 1.477999l-2.4776656.7442184c-.62620024.1868375-1.29101617-.1711807-1.47887624-.7964076"/><path d="m50.6712035 8.63396182-1.2258037 8.18148878 6.5305245-2.1140474-2.5889901-7.22786958z"/></g><path d="m46.2137696 8.19018642-.4347581-1.50689695c-.2455667-.84973899.2226343-1.75506838 1.0424639-2.01018861l5.7846716-1.8027173c.8198296-.25512024 1.6912569.23228846 1.9368235 1.08202745l.4347581 1.50689695c.2455667.85073168-.2235899 1.75705376-1.0424639 2.0111813l-5.7856272 1.80370999c-.818874.25512023-1.6903013-.23328115-1.9358679-1.08401283" fill="#000"/><path d="m2.36587136 21.2698582-.43474548-1.5068956c-.24555954-.850731.22358339-1.7560596 1.04243368-2.0111796l5.78450368-1.8027157c.81980577-.25512 1.69120776.2322883 1.93676726 1.0820265l.4347455 1.5068956c.246515.850731-.2235834 1.7570523-1.0424337 2.0111796l-5.78545917 1.8037084c-.81885029.25512-1.69025223-.233281-1.93581177-1.0830192" fill="#000"/><path d="m66.2381771 12.1546743-3.4842735-12.1546743-1.0810559.33945302-1.8631798.5855821-2.5218104.79068965c-1.1349617.8378644.5978641 5.51021472 1.0477324 7.08441527.3155938 1.09835101 2.7286125 1.40498686 4.1595659 1.48908096l.7987857 2.7894628z" fill="#f15a24"/><path d="m1.49556148 31.7625179-1.49556148-4.8122672 5.9678951-1.7270747 1.49556148 4.8122672z" fill="#f15a24"/><path d="m54.1394836 24.2807486.1297414.4350748c.1110665.3746202.506188.5896799.8777201.4776903l3.1246051-.94547c.3715321-.1119897.5848191-.5103953.4737526-.8850155l-.1297414-.4350748c-.1120494-.3746202-.5071709-.5896799-.878703-.4776903l-3.124605.9454701c-.3705493.1129807-.5838363.5103952-.4727698.8850154" fill="#4c4c4c"/><path d="m9.37932896 34.9680129.74622194 2.4874656c.1878601.6252589.8516323.9843391 1.4778326.7964483l2.4776656-.7432126c.6251566-.1878908.9831344-.8528155.796318-1.4780744l-.746222-2.4874655c-.18786-.6263027-.852676-.9843391-1.4778325-.7964483l-2.4776657.7432125c-.62620021.1878909-.98417801.8528156-.79631794 1.4780744" fill="#4c4c4c"/><path d="m54.8617414 24.2889843-5.4163416-6.244609 6.8095186-2.1631164 1.5868701 7.7483169z" fill="#4c4c4c"/><path d="m52.3094572 26.3027263.434742 1.5069216c.2455575.8507456 1.1169523 1.3381622 1.9357959 1.0820451l5.7854117-1.8017541c.819799-.2551244 1.2889381-1.1604686 1.0424251-2.0112142l-.4347419-1.5069215c-.2455575-.8507456-1.1169523-1.339155-1.9357959-1.0830379l-5.7854117 1.8027468c-.8188436.2551244-1.2879827 1.1604686-1.0424252 2.0112142" fill="#000"/><path d="m7.52871777 40.3154552.43474193 1.5070048c.24555752.8507925 1.11695232 1.338236 1.93579589 1.0821048l5.78541171-1.8018535c.8197991-.2551384 1.2889382-1.1605326 1.0424252-2.0113251l-.434742-1.5070047c-.2455575-.8507925-1.1169523-1.3382361-1.9357959-1.0830976l-5.78541169 1.8028462c-.81884358.2551385-1.28798266 1.1605326-1.04242514 2.0113251" fill="#000"/><path d="m66.467358 12.1444921 3.5025474 12.2804349-1.0867257.3429652-1.8719663.5895686-2.5360217.7999069c-1.3951075-.0455906-2.412866-4.9952731-2.8660789-6.5857614-.3162638-1.1097153 1.5478206-2.7716979 2.7035134-3.6752196l-.8039602-2.8193607z" fill="#f15a24"/><path d="m.93293207 31.620948 1.49556148 4.8125284 5.9678951-1.7278025-1.49556148-4.8115394z" fill="#f15a24"/><path d="m57.9803232 12.4533367-.3669456-1.2430363-2.3766939.7251888.2863966.9729869c-8.5909031 1.5939994-18.0797788 3.3387005-18.0797788 3.3387005s-1.2649182-1.0670491-2.0773697-2.6954368c-.3371126-.6766405-1.0630484-1.0569348-1.7989285-.9477014-1.8337337.2730837-5.3251865.9881583-9.2571729 2.7894989l-12.8033196 3.9061076.8562065 2.9068237-6.76512487 2.0632987 1.78798979 6.0614455.03878287.1324961 1.78798979 6.0614456 6.76512482-2.0632987.8572009 2.9058123 12.8023251-3.9061076c4.2581603-.696869 7.5616654-2.0541958 9.2392732-2.8532184.6742252-.319609 1.0739871-1.0437864.9894604-1.7972949-.2028643-1.8144892.2764522-3.4135456.2764522-3.4135456s8.866361-3.8545251 16.9023707-7.3328016l.2863965.9729869 2.3766939-.7262002-.3659512-1.2420249c.0387829-.0161828.0785602-.0333769.1173431-.0505711l-1.3534228-4.5888166z" fill="#000"/><path d="m69.847014 11.2321701c-.1033376-.35556-.3812456-1.0884088-.8979339-.9353205-.2628588.0780257-5.1939706.9738395-11.1072916 2.0375567l1.3664647 4.4810443c5.5300688-2.3141033 10.1491611-4.2380783 10.41202-4.316104.5166882-.1521007.339108-.9145794.2267408-1.2671765" fill="#f15a24"/><path d="m38.8168102 15.5908396c-.6262647.1130655-.9766508.1761021-.9766508.1761021s-1.2797147-1.0556122-2.1033233-2.6665464c-.3403175-.6693882-1.0753228-1.0456064-1.8203966-.9375437-1.8566435.2701567-5.3927237.9775669-9.3738344 2.7596004-4.7523629 1.4168216-5.7511646 4.9938961-12.0953676 6.7389081-1.8576503.5102959-6.84964507 2.0411837-6.84964507 2.0411837l1.81032806 5.9974781.03926741.1300754.01913027.0640372 33.58269303-10.2949704s-.6977516-1.9101077-2.232201-4.0083245" fill="#005073"/><path d="m41.0299777 25.095693c-.5758962.2468848-.8980413.3852597-.8980413.3852597s-.4777658 1.5738902-.2755579 3.3598225c.0842533.7416497-.3142153 1.4544299-.9862594 1.7690088-1.6721805.7864473-4.9640071 2.1224123-9.209383 2.8083139-4.6785371 1.4096322-7.4489844-1.0193951-13.6153359.9845524-1.8050034.5863513-6.7432389 2.0308261-6.7432389 2.0308261l-1.78220544-5.9660493-.0386574-.1304109-.01784188-.0627167 33.21563082-9.722082s.4688449 1.9661183.3508903 4.5434755" fill="#005073"/><path d="m35.9271576 31.7625179c1.2240642-.4449614 2.2131563-.8796466 2.9170685-1.217735.6808167-.325757 1.0844868-1.0615361 1.0001378-1.8260888-.2058516-1.8445859.2781508-3.4682326.2781508-3.4682326s.3263502-.1428398.9097639-.3987183c.0994113-2.1970612-.2711217-4.1762659-.4016618-4.800034l.0130541-.0030829s-.0110457-.0339116-.0351454-.0965967c-.0150624-.0678232-.0230956-.1027624-.0230956-.1027624l-.0140582.0041105c-.2229222-.5836907-.9659965-2.3953927-2.2262103-4.1690726-.6245841.115094-.9740298.1798343-.9740298.1798343s-1.2762803-1.0831162-2.0966744-2.7396469c-.3404084-.6864531-1.0744452-1.0728399-1.8175195-.9608288-.7701864.1140663-1.8295693.3082873-3.0907873.6258233l1.3967788 4.7650947s-10.9462873 2.6358568-12.1713557 8.8683993l.0080333.0256907c4.3740966 4.5143543 14.930772.5487514 14.930772.5487514z" fill="#387692"/><path d="m58.7747206 14.0128755-20.4329785 1.4109529-12.2196441 8.433921 14.8918487.4312349z" fill="#387692"/><path d="m37.3962978 24.0154196c-2.5140976.7736311-5.0061332-.149608-5.5643952-2.063016-.5592212-1.9114395 1.026358-4.0896144 3.5404555-4.8632454 2.5140976-.7736311 5.005174.1486237 5.5643952 2.0620318.5592212 1.9124237-1.0253988 4.0905986-3.5404555 4.8642296" fill="#000"/><path d="m31.9987982 23.9242045-1.134363-3.7495501c-.2903306-.9625833.2581868-1.9765867 1.2287204-2.2655674l3.4995203-1.0407418c.9694967-.2889807.6532437.6561198.9446112 1.6197316l1.134363 3.7485216c.2903306.9636118 1.0794076 1.5806524.1099109 1.8686046l-3.5005572 1.0407418c-.9684598.2889807-1.991875-.2581286-2.2822056-1.2217403" fill="#000"/><path d="m36.2569935 24.170371c-1.4804822.4442229-3.0405834-.3979722-3.4849432-1.8801495-.4454358-1.4832529.393791-3.0439491 1.8742732-3.488172 1.4794063-.4431474 3.0395074.3979721 3.4849432 1.881225.4443598 1.4821774-.394867 3.0439491-1.8742732 3.4870965" fill="#c0e9ff"/><path d="m35.9882219 23.2761231c-.9870066.2951212-2.0267618-.2657104-2.3229652-1.2535041-.2972178-.9888079.2627284-2.0303521 1.2487206-2.3254733.9870066-.2961352 2.0267618.2646963 2.3239796 1.2535042.2962035.9888078-.2627283 2.029338-1.249735 2.3254732z" stroke="#f15a24" stroke-width=".674"/><path d="m13.061049 21.4864092s-2.8252057 4.8058161-2.8065348 7.5668546c-.0186709.010793-2.80948288.8408707-2.80948288.8408707l-1.84743889-6.151013z" fill="#f15a24"/><path d="m16.7927773 34.0632566s-5.012285-2.6292659-6.5188223-5.1033138c-.020651.0010487-2.81049842.8987957-2.81049842.8987957l1.84973672 6.5747379z" fill="#f15a24"/><path d="m11.1951849 35.9338075-3.88423345-12.5790149-1.71335902.4986655 1.43451216 6.3271332 2.44972126 6.2528851z" fill="#005073"/><path d="m27.0550301 23.3547926 3.9777377-1.8683834.6869227 1.8327714z" fill="#f15a24"/></g></g></svg>