<?xml version="1.0" encoding="UTF-8"?>
<svg width="27px" height="14px" viewBox="0 0 27 14" version="1.1" xmlns="http://www.w3.org/2000/svg" xmlns:xlink="http://www.w3.org/1999/xlink">
    <!-- Generator: Sketch 58 (84663) - https://sketch.com -->
    <title>icons/diagonostic</title>
    <desc>Created with Sketch.</desc>
    <g id="icons/diagonostic" stroke="none" stroke-width="1" fill="none" fill-rule="evenodd">
        <path d="M25.1709469,9.92701493 C26.179416,9.92701493 27,9.01731343 27,7.89880597 C27,6.78014925 26.179416,5.87044776 25.1709469,5.87044776 C24.3763384,5.87044776 23.7058202,6.44268657 23.4569667,7.23373134 L18.7964479,7.23373134 L15.7213776,10.8577612 L9.48402389,7.10542736e-15 L6.50410743,5.1138806 L3.52149921,5.1138806 C3.25380336,4.36149254 2.59526349,3.8258209 1.82286204,3.8258209 C0.817757662,3.8258209 0,4.7358209 0,5.85402985 C0,6.97268657 0.817757662,7.88238806 1.82286204,7.88238806 C2.63846629,7.88238806 3.32311626,7.28313433 3.55810719,6.46373134 L7.16681953,6.46373134 L9.4770253,2.49955224 L15.5352422,13.0461194 L19.3224184,8.58358209 L23.4624848,8.58358209 C23.7161835,9.36432836 24.3829332,9.92701493 25.1709469,9.92701493" fill="#6EBE4A"></path>
    </g>
</svg>