<svg xmlns="http://www.w3.org/2000/svg" viewBox="0 0 20 20">
  <path fill="#697A95" fill-rule="evenodd" d="M17.0805608,16.5489291 L13.9147029,13.2454624 C14.8053141,12.0633939 15.3412193,10.5761929 15.3412193,8.95993009 C15.3412193,5.12226755 12.3488682,2 8.67103701,2 C4.99235113,2 2,5.12226755 2,8.95993009 C2,12.7967379 4.99235113,15.9190055 8.67103701,15.9190055 C10.1120836,15.9190055 11.4445815,15.4335283 12.5369051,14.6198413 L15.732678,17.9549325 C15.9190055,18.1489524 16.1625988,18.245535 16.4070467,18.245535 C16.65064,18.245535 16.8942333,18.1489524 17.0805608,17.9549325 C17.4523611,17.5668926 17.4523611,16.9378237 17.0805608,16.5489291 L17.0805608,16.5489291 Z M3.90515586,8.95993009 C3.90515586,6.21886466 6.04364844,3.98891776 8.67103701,3.98891776 C11.2984256,3.98891776 13.4352087,6.21886466 13.4352087,8.95993009 C13.4352087,11.7009955 11.2984256,13.9300877 8.67103701,13.9300877 C6.04364844,13.9300877 3.90515586,11.7009955 3.90515586,8.95993009 L3.90515586,8.95993009 Z" opacity=".601"/>
</svg>
