<?xml version="1.0" encoding="UTF-8"?>
<svg width="24px" height="24px" viewBox="0 0 24 24" version="1.1" xmlns="http://www.w3.org/2000/svg" xmlns:xlink="http://www.w3.org/1999/xlink">
    <!-- Generator: Sketch 55.1 (78136) - https://sketchapp.com -->
    <title>icons/icon-settings</title>
    <desc>Created with Sketch.</desc>
    <g id="icons/icon-settings" stroke="none" stroke-width="1" fill="none" fill-rule="evenodd">
        <path d="M12,7 C9.23827699,7 7,9.2380736 7,11.9995457 C7,14.7610177 9.23827699,17 12,17 C14.7626318,17 17,14.7610177 17,11.9995457 C17,9.2380736 14.7626318,7 12,7 M18.0656093,21.6894338 L15.4111018,23 L12.6142738,19.9655497 C12.4168614,19.9796722 12.2194491,19.9956777 12.0183639,19.9956777 C11.7943239,19.9956777 11.5721202,19.9796722 11.3535893,19.9617837 L8.56686144,22.986819 L5.91143573,21.6743698 L6.48530885,17.5223606 C6.20250417,17.211666 5.94081803,16.8821415 5.71035058,16.528138 L1.65559265,16.178842 L1,13.2328925 L4.52863105,11.1013395 C4.58831386,10.6767236 4.67462437,10.2624642 4.79858097,9.86421021 L2.53614357,6.39478752 L4.37345576,4.0325673 L8.18856427,5.52766722 C8.5457429,5.31206402 8.92036728,5.12658878 9.3115192,4.97312449 L10.545576,1 L13.4920701,1 L14.7252087,4.97312449 C15.1246244,5.13035477 15.5065943,5.32053751 15.8702003,5.53990671 L19.653172,4.05704626 L21.4904841,6.42020799 L19.2409015,9.8689177 C19.3703673,10.2850601 19.4594324,10.7181495 19.518197,11.1615954 L23,13.265845 L22.3434891,16.2108529 L18.3098497,16.5592074 C18.0692821,16.9245089 17.7947412,17.2662729 17.4981636,17.5826165 L18.0656093,21.6894338 Z" id="icons/icon-owner-auto2" fill="#BDC5CF"></path>
    </g>
</svg>