<svg xmlns="http://www.w3.org/2000/svg" viewBox="0 0 26 24">
  <g fill="none" fill-rule="evenodd" transform="translate(-1 -2)">
    <rect width="28" height="28" fill="#FF0000" opacity="0"/>
    <path fill="#BDC5CF" d="M13.9404,6 L23,13.0039882 C23,13.0039882 23,17.2086133 23,26 C23,26 20.9048478,26 16.7145433,26 C16.7145433,24.1312778 16.7145433,21.9410038 16.7145433,19.4291784 C16.7145433,18.0476746 15.43046,16.8683536 14,16.8683536 C12.68874,16.8683536 11.2854567,18.0476746 11.2854567,19.4291784 C11.2854567,19.4291784 11.2854567,22.2322618 11.2854567,26 C11.2854567,26 11.55629,26 5,26 C5,26 5,21.7953749 5,13.0039882 C5,13.0039882 5,13.2842966 13.9404,6 Z M14,4.18613039 L2.67092584,12.7575611 C2.42896212,13 2.18699891,13 2.06601679,13 C1.70307197,13 1.34012659,12.8787806 1.21914489,12.6363416 C0.856199713,12.1514637 0.977181421,11.5453613 1.34012659,11.1817029 C13.1963378,2.21144714 13.1963378,2.21144714 13.1963378,2.21144714 C13.448493,2.02195812 13.7334961,1.96411678 14,2.02077392 C14.2665045,1.96411678 14.5515076,2.02195812 14.8036628,2.21144714 C26.6598764,11.1817029 26.6598764,11.1817029 26.6598764,11.1817029 C27.0228172,11.5453613 27.1438008,12.1514637 26.780855,12.6363416 C26.6598764,12.8787806 26.2969306,13 25.9339847,13 C25.8130012,13 25.571039,13 25.3290767,12.7575611 L14,4.18613039 Z"/>
  </g>
</svg>
