<?xml version="1.0" encoding="UTF-8"?>
<svg width="10px" height="10px" viewBox="0 0 10 10" version="1.1" xmlns="http://www.w3.org/2000/svg" xmlns:xlink="http://www.w3.org/1999/xlink">
    <!-- Generator: Sketch 55.1 (78136) - https://sketchapp.com -->
    <title>icon-open-new-window</title>
    <desc>Created with Sketch.</desc>
    <g id="Symbols" stroke="none" stroke-width="1" fill="none" fill-rule="evenodd">
        <g id="Link-View-all" transform="translate(-371.000000, -5.000000)" fill="#227BB1">
            <g id="Group-5">
                <g id="icon-open-new-window" transform="translate(371.000000, 3.000000)">
                    <g id="Group-2-Copy-4">
                        <path d="M0.5,5.77488708 L0.995117187,5.77488708 C1.27125956,5.77488708 1.49511719,5.99874471 1.49511719,6.27488708 L1.49511719,11.2311401 C1.49511719,11.5072825 1.27125956,11.7311401 0.995117187,11.7311401 L0.5,11.7311401 C0.223857625,11.7311401 5.24345084e-16,11.5072825 0,11.2311401 L0,6.27488708 C-3.38176876e-17,5.99874471 0.223857625,5.77488708 0.5,5.77488708 Z" id="Rectangle"></path>
                        <path d="M2.97876086,8.31713758 L3.46038927,8.31713758 C3.73653165,8.31713758 3.96038927,8.54099521 3.96038927,8.81713758 L3.96038927,13.701234 C3.96038927,13.9773764 3.73653165,14.201234 3.46038927,14.201234 L2.97876086,14.201234 C2.70261848,14.201234 2.47876086,13.9773764 2.47876086,13.701234 L2.47876086,8.81713758 C2.47876086,8.54099521 2.70261848,8.31713758 2.97876086,8.31713758 Z" id="Rectangle-Copy-4" transform="translate(3.219575, 11.259186) rotate(90.000000) translate(-3.219575, -11.259186) "></path>
                        <path d="M6.17134654,2.04634092 L6.37744665,2.05550795 C6.6412095,2.06723973 6.85039314,2.28202821 6.85514825,2.54600901 L6.96988476,8.91562235 C6.97485814,9.19171994 6.75506854,9.41957297 6.47897095,9.42454634 C6.46902619,9.42472548 6.4590783,9.42460783 6.44914056,9.42419356 L5.88064763,9.40049493 C5.61017739,9.3892199 5.3978016,9.16474024 5.4015201,8.89406063 L5.48671841,2.69224883 C5.49169174,2.33022697 5.78920013,2.04078194 6.15122199,2.04575527 C6.15793278,2.04584746 6.16464175,2.0460427 6.17134654,2.04634092 Z" id="Rectangle-Copy-3" transform="translate(6.187143, 5.731301) rotate(45.000000) translate(-6.187143, -5.731301) "></path>
                        <polygon id="Triangle-Copy" transform="translate(8.161623, 3.774887) rotate(45.000000) translate(-8.161623, -3.774887) " points="8.14612942 1.99022363 11.7154563 5.55955054 4.60779022 5.52856283"></polygon>
                    </g>
                </g>
            </g>
        </g>
    </g>
</svg>