<svg xmlns="http://www.w3.org/2000/svg" viewBox="0 0 16 16">
  <path fill="#98ABC3" fill-rule="evenodd" d="M8,5.20254545 C7.30327273,5.20254545 6.73854545,4.63781818 6.73854545,3.94072727 C6.73854545,3.244 7.30327273,2.67927273 8,2.67927273 C8.69672727,2.67927273 9.26145455,3.244 9.26145455,3.94072727 C9.26145455,4.63781818 8.69672727,5.20254545 8,5.20254545 L8,5.20254545 Z M9.26145455,12.0589091 C9.26145455,12.7530909 8.69381818,13.3207273 8,13.3207273 C7.30618182,13.3207273 6.73854545,12.7530909 6.73854545,12.0589091 L6.73854545,7.56109091 C6.73854545,6.86727273 7.30618182,6.29963636 8,6.29963636 C8.69381818,6.29963636 9.26145455,6.86727273 9.26145455,7.56109091 L9.26145455,12.0589091 Z M8,0 C3.58181818,0 0,3.58145455 0,8 C0,12.4181818 3.58181818,16 8,16 C12.4181818,16 16,12.4181818 16,8 C16,3.58145455 12.4181818,0 8,0 L8,0 Z" opacity=".65"/>
</svg>
