<?xml version="1.0" encoding="UTF-8"?>
<svg viewBox="0 0 28 28" version="1.1" xmlns="http://www.w3.org/2000/svg" xmlns:xlink="http://www.w3.org/1999/xlink">
    <!-- Generator: Sketch 55.1 (78136) - https://sketchapp.com -->
    <title>icons/icon-matrics-timer</title>
    <desc>Created with Sketch.</desc>
    <g id="icons/icon-matrics-timer" stroke="none" stroke-width="1" fill="none" fill-rule="evenodd">
        <rect id="Rectangle" fill="#FF0000" opacity="0" x="0" y="0" width="32" height="32"></rect>
        <g transform="translate(4.000000, 5.000000)" fill="#BDC5CF" id="Group-10">
            <g>
                <path d="M10,18 C5.03770388,18 1,13.9621536 1,8.99968226 L2.13048083,8.99968226 C2.13048083,13.3387467 5.66045329,16.8694793 10,16.8694793 C14.3389112,16.8694793 17.8695192,13.3387467 17.8695192,8.99968226 C17.8695192,4.66061783 14.3389112,1.13052074 10,1.13052074 L10,0 C14.9622961,0 19,4.03721094 19,8.99968226 C19,13.9621536 14.9622961,18 10,18" id="Fill-1"></path>
                <polygon id="Fill-4" points="0 10 1.50032844 8 3 10"></polygon>
                <path d="M10,2 C9.44777266,2 9,2.39969149 9,2.89262148 L9,9.10669295 C9,9.60030851 9.44777266,10 10,10 C10.5522273,10 11,9.59962293 11,9.10669295 L11,2.89262148 C11,2.39969149 10.5522273,2 10,2" id="Fill-6"></path>
                <path d="M5.03861612,11.1359514 C5.1848155,11.7739198 5.70439664,12.139268 6.19889455,11.9501029 L10.3311771,10.365382 C10.825675,10.176217 11.1080405,9.50393926 10.9611244,8.86504359 C10.814925,8.22522064 10.2953439,7.86079974 9.80156265,8.04996478 L5.66856346,9.63468569 C5.17406555,9.82385073 4.89241674,10.4961285 5.03861612,11.1359514" id="Fill-8"></path>
            </g>
        </g>
    </g>
</svg>