<?xml version="1.0" encoding="UTF-8"?>
<svg width="20px" height="25px" viewBox="0 0 20 25" version="1.1" xmlns="http://www.w3.org/2000/svg" xmlns:xlink="http://www.w3.org/1999/xlink">
    <!-- Generator: Sketch 58 (84663) - https://sketch.com -->
    <title>icons/inventory</title>
    <desc>Created with Sketch.</desc>
    <g id="icons/inventory" stroke="none" stroke-width="1" fill="none" fill-rule="evenodd">
        <g fill="#63BAE4">
            <path d="M14.9064465,8.00403292 L13.8142243,8.00403292 L11.1907058,8.00403292 L7.99700206,8.00403292 L5.25107614,8.00403292 C4.80644651,8.00403292 4.35866873,7.99495885 3.9140391,8.00403292 L3.89607614,8.00403292 C3.42755762,8.00403292 2.97977984,8.41588477 3.00070576,8.89940329 C3.02144651,9.38588477 3.39459465,9.79477366 3.89607614,9.79477366 L4.98848354,9.79477366 L7.61181688,9.79477366 L10.8055206,9.79477366 L13.5516317,9.79477366 C13.9962613,9.79477366 14.4438539,9.80384774 14.8886687,9.79477366 L14.9064465,9.79477366 C15.3751502,9.79477366 15.8227428,9.38273663 15.8020021,8.89940329 C15.7810761,8.41273663 15.407928,8.00403292 14.9064465,8.00403292" id="Fill-4"></path>
            <path d="M14.9064465,13.0039506 L13.8142243,13.0039506 L11.1907058,13.0039506 L7.99700206,13.0039506 L5.25107614,13.0039506 C4.80644651,13.0039506 4.35866873,12.9950617 3.9140391,13.0039506 L3.89607614,13.0039506 C3.42755762,13.0039506 2.97977984,13.4159877 3.00070576,13.8995062 C3.02144651,14.3859877 3.39459465,14.7948765 3.89607614,14.7948765 L4.98848354,14.7948765 L7.61181688,14.7948765 L10.8055206,14.7948765 L13.5516317,14.7948765 C13.9962613,14.7948765 14.4438539,14.8037654 14.8886687,14.7948765 L14.9064465,14.7948765 C15.3751502,14.7948765 15.8227428,14.3830247 15.8020021,13.8995062 C15.7810761,13.4130247 15.407928,13.0039506 14.9064465,13.0039506" id="Fill-6"></path>
            <path d="M12.5073605,18 L10.6121753,18 L7.59161976,18 L6.8960642,18 C6.42754569,18 5.97995309,18.4118519 6.00069383,18.8951852 C6.02180495,19.3818519 6.39476791,19.7907407 6.8960642,19.7907407 L8.79143457,19.7907407 L11.8119901,19.7907407 L12.5073605,19.7907407 C12.975879,19.7907407 13.4236568,19.3787037 13.4029161,18.8951852 C13.3819901,18.4087037 13.008842,18 12.5073605,18" id="Fill-8"></path>
            <path d="M16.767963,23.0775926 L12.7475926,23.0775926 L7.88851852,23.0775926 L3.68314815,23.0775926 C3.05185185,23.0775926 2.41814815,23.0868519 1.78666667,23.077963 C1.78259259,22.9281481 1.79074074,22.7761111 1.79074074,22.6298148 L1.79074074,21.1942593 L1.79074074,16.4335185 L1.79074074,10.6642593 L1.79074074,5.71259259 C1.79074074,4.91851852 1.78481481,4.12462963 1.79074074,3.32796296 C1.79074074,3.32314815 1.79166667,3.31833333 1.79166667,3.31333333 C1.85092593,3.31407407 1.91055556,3.31592593 1.97,3.31592593 L2.7937037,3.31592593 L4.24759259,3.31592593 C4.28277778,3.88166667 4.5737037,4.38944444 5.05611111,4.69462963 C5.39925926,4.90981481 5.78425926,4.94555556 6.17222222,4.94555556 L7.07666667,4.94555556 L10.0346296,4.94555556 L12.9475926,4.94555556 L13.7951852,4.94555556 L13.9624074,4.94555556 C14.412963,4.93962963 14.8368519,4.77240741 15.1622222,4.45907407 C15.4768519,4.15796296 15.6418519,3.7462963 15.6696296,3.31888889 L17.9827778,3.31888889 C18.0288889,3.31888889 18.0751852,3.31814815 18.1216667,3.31703704 C18.1274074,3.4812963 18.12,3.64777778 18.12,3.81148148 L18.12,5.24703704 L18.12,10.0075926 L18.12,15.7768519 L18.12,20.7494444 C18.12,21.5248148 18.1225926,22.3007407 18.12,23.0790741 C18.0711111,23.0783333 18.0218519,23.0775926 17.9737037,23.0775926 L16.767963,23.0775926 Z M6.05592593,1.74222222 C6.04759259,1.74574074 6.03907407,1.74907407 6.03074074,1.75277778 C6.03092593,1.74944444 6.0312963,1.7462963 6.0312963,1.74296296 C6.06685185,1.71407407 6.08,1.72 6.05592593,1.74222222 L6.05592593,1.74222222 Z M6.03462963,3.20537037 C6.03555556,3.20611111 6.03611111,3.20666667 6.03685185,3.20740741 C6.04111111,3.21648148 6.04555556,3.22462963 6.04981481,3.23537037 C6.0462963,3.22555556 6.04,3.21666667 6.03518519,3.20722222 C6.035,3.20666667 6.03481481,3.20592593 6.03462963,3.20537037 L6.03462963,3.20537037 Z M5.98648148,3.12462963 C5.99,3.13333333 5.99351852,3.14166667 5.99703704,3.15037037 C5.9937037,3.15 5.99074074,3.14962963 5.98740741,3.14962963 C5.95833333,3.11407407 5.96407407,3.10074074 5.98648148,3.12462963 L5.98648148,3.12462963 Z M5.97351852,1.79092593 C5.97425926,1.79074074 5.97481481,1.79055556 5.97537037,1.79037037 C5.97462963,1.7912963 5.97407407,1.79185185 5.97333333,1.79259259 C5.96407407,1.79685185 5.95611111,1.80111111 5.94555556,1.80555556 C5.95518519,1.80185185 5.96407407,1.79574074 5.97351852,1.79092593 L5.97351852,1.79092593 Z M6.70666667,1.79074074 L8.61074074,1.79074074 L12.9772222,1.79074074 L13.89,1.79074074 C13.8962963,1.9587037 13.8894444,2.12851852 13.885,2.29611111 C13.8798148,2.33685185 13.877037,2.37851852 13.8787037,2.42037037 C13.8790741,2.4287037 13.8814815,2.43666667 13.8822222,2.445 C13.8822222,2.45259259 13.8818519,2.46055556 13.8818519,2.46814815 C13.8818519,2.69166667 13.897037,2.92537037 13.8883333,3.15240741 C13.6624074,3.16092593 13.4311111,3.14574074 13.2101852,3.14574074 L11.2790741,3.14574074 L6.90055556,3.14574074 C6.61666667,3.14574074 6.31740741,3.16685185 6.02740741,3.15240741 C6.01796296,2.92462963 6.035,2.69203704 6.035,2.46814815 C6.035,2.24481481 6.01981481,2.01092593 6.02851852,1.78407407 C6.25425926,1.77555556 6.48574074,1.79074074 6.70666667,1.79074074 L6.70666667,1.79074074 Z M13.9303704,1.81166667 C13.9274074,1.80481481 13.9246296,1.79777778 13.9216667,1.79074074 L13.9325926,1.79074074 C13.9585185,1.8237037 13.9518519,1.83481481 13.9303704,1.81166667 L13.9303704,1.81166667 Z M13.8607407,3.19444444 C13.8692593,3.19074074 13.8775926,3.18722222 13.8859259,3.1837037 C13.8859259,3.18703704 13.8855556,3.19018519 13.8853704,3.19351852 C13.85,3.22222222 13.8368519,3.21648148 13.8607407,3.19444444 L13.8607407,3.19444444 Z M13.9431481,3.14555556 L13.9414815,3.14611111 C13.9422222,3.14518519 13.9425926,3.14462963 13.9433333,3.1437037 C13.9525926,3.13944444 13.9605556,3.13537037 13.9711111,3.13074074 C13.9614815,3.13462963 13.9525926,3.14092593 13.9431481,3.14555556 L13.9431481,3.14555556 Z M18.1648148,3.25018519 C18.1640741,3.25037037 18.1627778,3.24907407 18.162037,3.2487037 C18.1524074,3.24018519 18.1411111,3.22962963 18.1285185,3.21685185 C18.1262963,3.2137037 18.1237037,3.21037037 18.1216667,3.20703704 C18.142037,3.22759259 18.1648148,3.25018519 18.1648148,3.25018519 L18.1648148,3.25018519 Z M18.092963,3.16444444 C18.0738889,3.13351852 18.0672222,3.11962963 18.092963,3.16444444 L18.092963,3.16444444 Z M19.9048148,22.7968519 L19.9048148,21.7851852 L19.9048148,18.2662963 L19.9048148,13.6218519 L19.9048148,8.87944444 L19.9048148,5.09777778 C19.9048148,4.50981481 19.9077778,3.91888889 19.9048148,3.33074074 C19.9018519,2.93981481 19.8183333,2.51018519 19.5883333,2.18759259 C19.2988889,1.78481481 18.905,1.54 18.4003704,1.52518519 C18.3498148,1.52222222 18.2992593,1.52518519 18.2514815,1.52518519 L16.2187037,1.52518519 L15.6548148,1.52518519 C15.6266667,1.30277778 15.5712963,1.08611111 15.4635185,0.883333333 C15.1742593,0.334259259 14.5861111,0.017962963 13.9742593,0 L12.5357407,0 L9.48222222,0 L6.70666667,0 L6.01407407,0 C5.23203704,0 4.49777778,0.483518519 4.29796296,1.26240741 C4.27611111,1.34981481 4.26425926,1.43703704 4.2562963,1.52388889 C3.4037037,1.52259259 2.55148148,1.52074074 1.69833333,1.52518519 C0.701296296,1.52814815 0,2.40851852 0,3.3637037 L0,4.02314815 L0,7.04685185 L0,11.485 L0,16.2962963 L0,20.4509259 L0,22.8833333 C0,23.3012963 0.0327777778,23.7072222 0.268518519,24.0744444 C0.582037037,24.557963 1.09240741,24.8592593 1.67148148,24.8683333 L1.88333333,24.8683333 L4.52777778,24.8683333 L8.95407407,24.8683333 L13.7146296,24.8683333 L17.3290741,24.8683333 L18.2394444,24.8683333 L18.3975926,24.8683333 C18.7168519,24.8592593 19.0064815,24.7668519 19.2601852,24.57 C19.6631481,24.2562963 19.8392593,23.8087037 19.8927778,23.3131481 C19.9109259,23.1431481 19.9048148,22.967037 19.9048148,22.7968519 L19.9048148,22.7968519 Z" id="Fill-1"></path>
        </g>
    </g>
</svg>