<svg xmlns="http://www.w3.org/2000/svg" viewBox="0 0 26 26">
  <path fill="#CDDBF0" fill-rule="evenodd" d="M25.025,7.71875 L15.396875,12.5125 C14.746875,12.8375 13.934375,13 13,13 C12.065625,13 11.253125,12.8375 10.603125,12.5125 L0.975,7.71875 C0.325,7.353125 0,6.946875 0,6.5 C0,6.053125 0.325,5.646875 0.975,5.28125 L10.603125,0.4875 C11.253125,0.1625 12.065625,0 13,0 C13.934375,0 14.746875,0.1625 15.396875,0.4875 L25.025,5.28125 C25.675,5.60625 26,6.0125 26,6.5 C26,6.9875 25.675,7.353125 25.025,7.71875 Z M25.025,14.21875 L15.396875,18.971875 C14.746875,19.3375 13.934375,19.5 13,19.5 C12.065625,19.5 11.253125,19.3375 10.603125,18.971875 L0.975,14.21875 C0.325,13.853125 0,13.446875 0,13 C0,12.553125 0.325,12.146875 0.975,11.78125 L1.86875,11.375 L10.603125,15.7625 C11.29375,16.0875 12.065625,16.25 13,16.25 C13.934375,16.25 14.746875,16.0875 15.396875,15.7625 L24.13125,11.375 L24.984375,11.821875 C25.634375,12.146875 25.959375,12.553125 25.959375,13.040625 C26,13.446875 25.675,13.853125 25.025,14.21875 Z M0.975,18.28125 L1.86875,17.875 L10.603125,22.221875 C11.29375,22.546875 12.065625,22.75 13,22.75 C13.934375,22.75 14.746875,22.5875 15.396875,22.221875 L24.13125,17.875 L24.984375,18.321875 C25.634375,18.646875 25.959375,19.053125 25.959375,19.540625 C25.959375,19.9875 25.634375,20.39375 24.984375,20.759375 L15.396875,25.471875 C14.746875,25.796875 13.934375,26 13,26 C12.065625,26 11.253125,25.8375 10.603125,25.471875 L0.975,20.71875 C0.325,20.353125 0,19.946875 0,19.5 C0,19.053125 0.325,18.646875 0.975,18.28125 Z"/>
</svg>
