<?xml version="1.0" encoding="UTF-8"?>
<svg width="17px" height="16px" viewBox="0 0 17 16" version="1.1" xmlns="http://www.w3.org/2000/svg" xmlns:xlink="http://www.w3.org/1999/xlink">
    <!-- Generator: Sketch 55.1 (78136) - https://sketchapp.com -->
    <title>Timeline</title>
    <desc>Created with Sketch.</desc>
    <g id="Symbols" stroke="none" stroke-width="1" fill="none" fill-rule="evenodd">
        <g id="Timeline-active" fill="#98ABC3" fill-rule="nonzero">
            <g id="Timeline">
                <path d="M9.3238815,0.00293739673 C9.3075575,0.00195826449 9.29027327,0 9.27298905,0 C8.82071838,0 8.50768178,0.374028517 8.50768178,0.834220672 C8.50768178,1.28853803 8.68052407,1.65767089 9.36037043,1.66746221 L9.36037043,1.67039961 C12.5896406,1.71543969 15.4165723,4.52946576 15.4165723,7.98090692 C15.4165723,11.4607429 12.6136465,14.3325378 9.20001119,14.3325378 C5.94385443,14.3325378 3.23599183,11.8269384 2.99881379,8.53313751 L4.43628553,8.53313751 L2.21814277,4.77326969 L0,8.53313751 L1.36065294,8.53313751 C1.60167192,12.6924913 5.01338675,16 9.17312461,16 C13.4893808,16 17,12.401689 17,7.99951043 C17.00096,3.65216327 13.5700405,0.0861636375 9.3238815,0.00293739673 Z" id="Path"></path>
                <path d="M9.99923451,3.61504894 C9.99923451,3.28399575 9.75274555,3 9.44654809,3 L9.32713109,3 C9.02016813,3 8.77980313,3.28399575 8.77980313,3.61504894 L8.77980313,7.15261234 L7.17379746,8.8821795 C6.93572894,9.13810591 6.94874233,9.55254157 7.17303197,9.80681684 C7.3980871,10.0643944 7.79231633,10.0643944 8.02961936,9.80681684 L9.80403363,7.89232221 C9.81781251,7.8766364 9.82929492,7.86012501 9.84230831,7.84609034 C9.9402915,7.73711523 10,7.59016393 10,7.42670126 L9.99923451,3.61504894 L9.99923451,3.61504894 Z" id="Path"></path>
            </g>
        </g>
    </g>
</svg>