<svg xmlns="http://www.w3.org/2000/svg" viewBox="0 0 27 26">
  <path fill="#CDDCEF" fill-rule="evenodd" d="M15.2600165,3.31844639 L23.4881353,11.5467547 L16.8731798,18.1615205 L13.901683,15.1900237 L2.17818757,26 L-5.5067062e-14,23.822002 L11.5841354,12.8724761 L8.64506112,9.93340181 L15.2600165,3.31844639 Z M25.0896167,11.7073008 L25.1760789,11.7827756 L26.55963,13.166137 C26.8615293,13.4682102 26.8866876,13.9463332 26.6351048,14.277602 L26.55963,14.3640644 L19.6906033,21.2330911 C19.388704,21.5351642 18.910436,21.560337 18.579142,21.3086094 L18.4926759,21.2330911 L17.1091249,19.8497296 C16.8072256,19.5478303 16.7820673,19.0695624 17.03365,18.7382683 L17.1091249,18.6518023 L23.9783412,11.7827756 C24.2802405,11.4808763 24.7583491,11.455718 25.0896167,11.7073008 Z M13.5540146,0.171533693 L13.6405204,0.247008518 L15.0238819,1.63055959 C15.3257812,1.93245889 15.3509395,2.4105675 15.0993567,2.74198106 L15.0238819,2.82848691 L8.15485516,9.69751365 C7.85295586,9.99941295 7.37484725,10.0245712 7.04343368,9.77298848 L6.95692784,9.69751365 L5.57356637,8.31396258 C5.27166707,8.01206328 5.24634948,7.53395467 5.49805172,7.20254111 L5.57356637,7.11603526 L12.4425931,0.247008518 C12.7444924,-0.0548907818 13.222601,-0.0800490568 13.5540146,0.171533693 Z"/>
</svg>
