<svg xmlns="http://www.w3.org/2000/svg" viewBox="0 0 26 26">
  <g fill="none" fill-rule="evenodd">
    <rect width="26" height="26" fill="#CDDCEF" rx="4"/>
    <path fill="#FFFFFF" d="M22.9977136,18.7666353 L16.9389825,15.6280018 C16.7721349,15.5422615 16.58008,15.3402357 16.5116605,15.1794725 L15.7800514,13.7106328 C16.7487282,13.0734747 17.4401257,11.0178493 17.4401257,9.86089019 L17.4401257,7.51642693 C17.4401257,5.58298159 15.6636182,4 13.4981995,4 C11.3327808,4 9.56347528,5.58298159 9.56347528,7.51642693 L9.56347528,9.86089019 C9.56347528,11.0430355 10.196056,13.1184884 11.200743,13.7524312 L10.4871392,15.1794725 C10.4187196,15.3402357 10.2260646,15.5422615 10.0592169,15.6280018 L4.00228637,18.7666353 C3.8354387,18.8523756 3.68156016,18.9384021 3.64098314,19.2312409 C3.33393903,21.4471366 3.12027798,21.7033896 3,24 L24,24 C23.8789552,21.7036305 23.664894,21.4473774 23.3578165,19.2312409 C23.3172896,18.9387633 23.163361,18.8523756 22.9977136,18.7666353 Z"/>
  </g>
</svg>
