<svg xmlns="http://www.w3.org/2000/svg" viewBox="0 0 17 17">
  <g fill="none" fill-rule="evenodd" transform="translate(-1 -1)">
    <rect width="19" height="19" fill="#FF0000" opacity="0"/>
    <path fill="#7F7F86" d="M7.52001668,3.73215822 C7.48539865,3.73272269 7.45121335,3.7483019 7.42708892,3.77426724 C7.4028563,3.80034548 7.38911727,3.83658408 7.38965818,3.87293556 C7.38792728,5.87791196 7.38965818,6.16364367 7.38965818,7.88819431 C7.38890091,7.92499737 7.4028563,7.96191332 7.42752164,7.98810446 C7.4520788,8.01440848 7.48691319,8.0297619 7.52207212,8.0297619 C7.55712287,8.0297619 7.59206544,8.01440848 7.6166226,7.98810446 C7.64117976,7.96191332 7.65513515,7.92511027 7.65437788,7.88819431 L7.65437788,6.46235806 L10.8378298,6.46235806 C10.8644424,6.46235806 10.8909468,6.45366531 10.9127994,6.43797321 C10.934652,6.42216822 10.9518529,6.39936387 10.961481,6.37339852 C10.9708928,6.34743318 10.9728401,6.31841972 10.9665655,6.29132545 C10.9603992,6.26423117 10.9462274,6.23928186 10.9265384,6.22054165 L9.94987743,5.29786867 L10.9272957,4.35961649 C10.9467684,4.34087628 10.9607237,4.31581408 10.9667819,4.28883269 C10.9728401,4.26173842 10.9708928,4.23295075 10.9612646,4.2069854 C10.9516365,4.18113295 10.9344357,4.1583286 10.9125831,4.14274939 C10.8907304,4.12705729 10.8643342,4.11847744 10.8378298,4.11847744 L7.65437788,4.11847744 L7.65437788,3.87293556 C7.65491879,3.83590672 7.64053067,3.79899077 7.61554079,3.77268674 C7.5905509,3.7466085 7.55528379,3.73159376 7.52001668,3.73215822"/>
    <path fill="#7F7F86" d="M12.6666667,7.91666667 C15.8333333,8.70833333 12.6666667,10.2916667 12.6666667,10.2916667 C11.0833333,11.0833333 10.6875,12.2708333 10.6875,12.2708333 C9.89583333,14.6458333 12.5426415,15.5723062 13.0625,16.2291667 C13.1064244,16.2845915 10.7626883,17.0208333 10.6875,17.0208333 L6.72916667,16.625 C3.5625,13.0625 10.2916667,10.2916667 10.2916667,10.2916667 C11.992834,9.53901898 13.0334929,9.1503393 13.0625,8.70833333 C13.1113056,7.96464037 11.7786378,7.80313505 10.2916667,7.52083333 L12.6666667,7.91666667 Z M11.98367,11.5510119 C11.98367,11.5510119 12.2941914,10.8861517 14.4673399,9.67729276 C14.4673399,9.67729276 16.0196964,8.40800311 12.9151089,7.62228145 C12.9151089,7.62228145 11.3800594,7.02017155 5.9780396,7.14103303 C5.9780396,7.14103303 9.63657426,7.38287806 11.9338812,8.16859973 C11.9338812,8.16859973 14.0948647,8.58941741 10.741835,9.79815424 C7.38893069,11.0070132 4.84318152,11.6719954 3.16666667,13.4851617 C3.16666667,13.4851617 4.78110231,17.5348757 10.4935182,17.4140142 C10.4935182,17.4140142 13.6601848,17.2325999 15.8333333,14.0291604 C15.8333333,14.0291604 11.0523564,13.3643002 11.98367,11.5510119"/>
    <path fill="#7F7F86" d="M7.91666667,15.0416667 C3.98174337,15.0416667 0.791666667,11.8517098 0.791666667,7.91666667 C0.791666667,3.98162352 3.98174337,0.791666667 7.91666667,0.791666667 C11.85159,0.791666667 15.0416667,3.98162352 15.0416667,7.91666667 C15.0416667,11.8517098 11.85159,15.0416667 7.91666667,15.0416667 M7.91666667,0 C3.54442164,0 0,3.54442164 0,7.91666667 C0,12.2889117 3.54442164,15.8333333 7.91666667,15.8333333 C12.2889117,15.8333333 15.8333333,12.2889117 15.8333333,7.91666667 C15.8333333,3.54442164 12.2889117,0 7.91666667,0" transform="translate(1.583 1.583)"/>
  </g>
</svg>
