<svg xmlns="http://www.w3.org/2000/svg" viewBox="0 0 14 15">
  <g fill="none" fill-rule="evenodd" transform="translate(-5 -5)">
    <rect width="24" height="24" fill="#FF0000" opacity="0"/>
    <path fill="#7F7F86" d="M8.01514135,14.3751522 L11.0588786,9.3226841 L11.0588786,5.93788057 L12.9411174,5.93788057 L12.9411174,9.3226841 L15.9848546,14.3751522 L8.01559983,14.3751522 L8.01514135,14.3751522 Z M18.5335796,16.7844747 L13.8823896,9.06435211 L13.8823896,5.93742389 L14.3529493,5.93742389 C14.6118412,5.93742389 14.823509,5.72658724 14.823509,5.46871194 C14.823509,5.21098888 14.6118412,5 14.3529493,5 L9.6471995,5 C9.3883076,5 9.17663979,5.21098888 9.17663979,5.46871194 C9.17663979,5.72658724 9.3883076,5.93742389 9.6471995,5.93742389 L10.1177592,5.93742389 L10.1177592,9.06435211 L5.4664164,16.7844747 C4.40104723,18.5529147 5.22357152,20 7.29424817,20 L16.7059007,20 C18.7764245,20 19.5989488,18.5529147 18.5335796,16.7844747 L18.5335796,16.7844747 Z"/>
  </g>
</svg>
