<svg xmlns="http://www.w3.org/2000/svg" viewBox="0 0 16 14">
  <g fill="none" fill-rule="evenodd" transform="translate(-4 -5)">
    <rect width="24" height="24" fill="#FF0000" opacity="0"/>
    <path fill="#7F7F86" d="M5.04918033,15.3240131 L18.9508197,15.3240131 L18.9508197,5.92175082 L5.04918033,5.92175082 L5.04918033,15.3240131 Z M19.2991475,5.0000459 L4.70085246,5.0000459 C4.31527869,5.0000459 4,5.27591475 4,5.6132918 L4,15.6327016 C4,15.9700787 4.31527869,16.2459475 4.70085246,16.2459475 L19.2991475,16.2459475 C19.6847213,16.2459475 20,15.9700787 20,15.6327016 L20,5.6132918 C20,5.27591475 19.6847213,5.0000459 19.2991475,5.0000459 L19.2991475,5.0000459 Z"/>
    <g transform="translate(7.429 6)">
      <polygon fill="#7F7F86" points="2.811 6.557 2.811 12.131 5.059 10.492 7.682 12.459 7.779 6.873"/>
      <path fill="#7F7F86" d="M6.7458548,8.83775666 C6.66978923,8.83775666 6.55587822,8.83775666 6.47981265,8.77152716 L5.26351288,8.23939601 L4.04758782,8.77152716 C3.78154567,8.90431404 3.43943794,8.80464191 3.28730679,8.53874027 L2.64131148,7.50759273 L1.38716628,7.34169109 C1.08290398,7.30824847 0.855081967,7.04201896 0.931147541,6.77611732 L1.12112412,5.61218289 L0.170866511,4.78070748 C-0.0569555035,4.58136322 -0.0569555035,4.28169109 0.170866511,4.08234683 L1.12112412,3.25119929 L0.931147541,2.08726486 C0.8929274,1.82136322 1.08290398,1.55513371 1.38716628,1.52201896 L2.71737705,1.32234683 L3.36337237,0.291527156 C3.51550351,0.0587402705 3.85761124,-0.0409318607 4.12327869,0.0587402705 L5.33957845,0.590871418 L6.55587822,0.0587402705 C6.82192037,-0.0743744836 7.1640281,0.0252976475 7.31578454,0.291527156 L7.96215457,1.32234683 L9.29199063,1.52201896 C9.59625293,1.55513371 9.82407494,1.82136322 9.74838407,2.08726486 L9.55803279,3.25119929 L10.5082904,4.08234683 C10.7364871,4.28169109 10.7364871,4.58136322 10.5082904,4.78070748 L9.55803279,5.61218289 L9.74838407,6.77611732 C9.78622951,7.04201896 9.59625293,7.30824847 9.29199063,7.34169109 L7.96215457,7.54103535 L7.31578454,8.57152716 C7.1640281,8.77152716 6.97367681,8.83775666 6.7458548,8.83775666"/>
      <path fill="#7F7F86" d="M7.58531148,12.7869042 C7.46015925,12.7875599 7.33987822,12.7452649 7.25069789,12.6701829 L5.22952693,10.9357567 L3.20835597,12.6659206 C3.02512412,12.8239534 2.72685714,12.824937 2.54212646,12.6682157 C2.45332084,12.5928058 2.40311007,12.4905108 2.40273536,12.3836255 L2.40273536,7.28854355 C2.40273536,7.0659206 2.61369555,6.88526486 2.87374239,6.88526486 C3.13416393,6.88526486 3.34512412,7.0659206 3.34512412,7.28854355 L3.34512412,11.4114944 L4.89491335,10.0846091 C5.07889461,9.92788781 5.37566276,9.92788781 5.55926932,10.0846091 L7.11430445,11.4114944 L7.11430445,7.28854355 C7.11430445,7.0659206 7.32526464,6.88526486 7.58531148,6.88526486 C7.84535831,6.88526486 8.0563185,7.0659206 8.0563185,7.28854355 L8.0563185,12.3836255 C8.0563185,12.6062485 7.84535831,12.7869042 7.58531148,12.7869042"/>
      <path fill="#FFFFFF" d="M4.84526464,5.03972388 L3.57088525,3.95054355 C3.5274192,3.91283863 3.45659953,3.91382224 3.41425761,3.95054355 L2.84320375,4.44496978 C2.7997377,4.48234683 2.7997377,4.54300257 2.84320375,4.58070748 C3.4858267,5.12988781 4.12732553,5.67906814 4.77032319,6.2279206 C4.81378923,6.26529765 4.88423419,6.26529765 4.92770023,6.2279206 L8.399363,3.22660912 C8.44207963,3.1889042 8.44207963,3.12824847 8.39823888,3.09119929 L7.82418735,2.60037961 C7.7803466,2.5626747 7.70990164,2.5626747 7.6664356,2.60037961 L4.84526464,5.03972388 Z"/>
    </g>
  </g>
</svg>
