<svg xmlns="http://www.w3.org/2000/svg" viewBox="0 0 16 12">
  <g fill="none" fill-rule="evenodd" transform="translate(-4 -6)">
    <rect width="24" height="24" fill="#FF0000" opacity="0"/>
    <path fill="#7F7F86" d="M13.5720563,13.2496338 C13.5477183,13.1376338 13.6317746,13.0295775 13.7597746,13.0080845 C14.3513239,12.9100845 14.951662,12.8586197 15.5535775,12.8540845 C16.1572958,12.8603944 16.7592113,12.9134366 17.352338,13.0126197 C17.4812394,13.0299718 17.5693521,13.1354648 17.5495211,13.2482535 C17.5492958,13.2502254 17.5488451,13.2521972 17.5483944,13.2539718 L17.4620845,13.6089014 C17.4368451,13.7191268 17.315831,13.791493 17.1894085,13.7717746 C16.6503662,13.6826479 16.103662,13.6339437 15.5551549,13.6264507 C15.0100282,13.6335493 14.4667042,13.6822535 13.9310423,13.7717746 C13.804169,13.7922817 13.6820282,13.7197183 13.6567887,13.6089014 L13.5720563,13.2496338 Z M13.5720563,11.1405634 C13.548169,11.0283662 13.6324507,10.920507 13.7606761,10.8994085 C14.3526761,10.8065352 14.9498592,10.7580282 15.5486197,10.7536901 C16.1507606,10.7576338 16.7513239,10.806338 17.344,10.8990141 C17.4733521,10.9122254 17.5664225,11.0145634 17.5515493,11.1277465 C17.5508732,11.133662 17.5497465,11.1393803 17.5483944,11.1449014 L17.4701972,11.4982535 C17.4451831,11.6078873 17.3250704,11.6800563 17.1993239,11.6613239 C16.6562254,11.5751549 16.1056901,11.5288169 15.5535775,11.5230986 C15.0082254,11.5288169 14.4644507,11.5745634 13.9278873,11.6597465 C13.8014648,11.6794648 13.6802254,11.6070986 13.6552113,11.4968732 L13.5720563,11.1405634 Z M13.5720563,9.03721127 C13.5479437,8.92501408 13.6322254,8.81715493 13.7602254,8.79605634 C14.3531268,8.70239437 14.9525634,8.65329577 15.5535775,8.64895775 C16.1557183,8.65290141 16.7562817,8.70160563 17.3489577,8.79428169 C17.4780845,8.80946479 17.5686761,8.91357746 17.5513239,9.02656338 C17.5506479,9.03149296 17.5495211,9.03661972 17.5483944,9.0415493 L17.4620845,9.39076056 C17.4368451,9.50078873 17.315831,9.57315493 17.1894085,9.5536338 C16.6505915,9.46411268 16.103662,9.41540845 15.5551549,9.40830986 C15.0100282,9.41580282 14.4667042,9.46430986 13.9310423,9.5536338 C13.804169,9.57394366 13.6820282,9.50138028 13.6567887,9.39076056 L13.5720563,9.03721127 Z M18.6372958,7.58278873 L18.5791549,7.55656338 C17.6153239,7.21977465 16.5910986,7.03442254 15.5535775,7.00957746 C14.6670423,7.00957746 13.6567887,7.19276056 12.5230423,7.55952113 L12.4649014,7.5855493 L12.4649014,15.772 L12.5829859,15.7369014 C13.5378028,15.4409296 14.5408451,15.2818028 15.5535775,15.265831 C16.5669859,15.2821972 17.5707042,15.4417183 18.5259718,15.7384789 L18.643831,15.7733803 L18.6372958,7.58278873 Z M6.24428169,13.2555493 C6.21994366,13.1435493 6.30422535,13.0352958 6.43222535,13.0141972 C7.02783099,12.9140282 7.63267606,12.8603944 8.23909859,12.8540845 C8.83853521,12.8607887 9.43594366,12.913831 10.0245634,13.0126197 C10.1525634,13.0339155 10.2366197,13.1419718 10.2122817,13.2539718 L10.1358873,13.6089014 C10.1108732,13.7197183 9.98850704,13.7922817 9.8616338,13.7717746 C9.32619718,13.6822535 8.78264789,13.6335493 8.23752113,13.6264507 C7.68901408,13.6337465 7.14230986,13.6822535 6.60349296,13.7717746 C6.47639437,13.7922817 6.35425352,13.7197183 6.32901408,13.6089014 L6.24428169,13.2555493 Z M6.24428169,11.1449014 C6.22016901,11.0329014 6.30467606,10.9248451 6.43290141,10.9039437 C7.02805634,10.8108732 7.62861972,10.762169 8.23076056,10.7580282 C8.82952113,10.7623662 9.42670423,10.8110704 10.0162254,10.9035493 C10.1446761,10.9230704 10.2303099,11.030338 10.2077746,11.1425352 L10.1293521,11.4968732 C10.1041127,11.6070986 9.98309859,11.6794648 9.85667606,11.6597465 C9.3228169,11.5749577 8.78174648,11.5292113 8.23909859,11.5230986 C7.6903662,11.5288169 7.14343662,11.5747606 6.60349296,11.6597465 C6.47752113,11.6784789 6.3576338,11.6063099 6.33239437,11.4968732 L6.24428169,11.1449014 Z M6.24428169,9.0415493 C6.22016901,8.9295493 6.3044507,8.82149296 6.4324507,8.80039437 C7.02647887,8.70752113 7.62704225,8.6588169 8.2291831,8.65467606 C8.82794366,8.65901408 9.42512676,8.70771831 10.0146479,8.80019718 C10.1428732,8.82070423 10.227831,8.92816901 10.2043944,9.0403662 C10.204169,9.04076056 10.204169,9.04115493 10.204169,9.0415493 L10.1358873,9.39076056 C10.1108732,9.50078873 9.9896338,9.57315493 9.86321127,9.5536338 C9.32777465,9.46430986 8.78422535,9.41580282 8.23909859,9.40830986 C7.69059155,9.41540845 7.14388732,9.46411268 6.60507042,9.5536338 C6.47752113,9.57492958 6.35425352,9.50216901 6.32901408,9.39076056 L6.24428169,9.0415493 Z M11.328,7.58416901 L11.2696338,7.55794366 C10.1358873,7.1923662 9.12585915,7.00957746 8.23909859,7.00957746 C7.19932394,7.03422535 6.17284507,7.21997183 5.20698592,7.55794366 L5.14884507,7.58416901 L5.14884507,15.772 L5.26692958,15.7369014 C6.22197183,15.4407324 7.22569014,15.2816056 8.23909859,15.265831 C9.24935211,15.2816056 10.2499155,15.4413239 11.2013521,15.7384789 L11.3295775,15.7733803 L11.328,7.58416901 Z M19.7926761,16.9341972 C19.7929014,17.0473803 19.688338,17.1394648 19.5587606,17.1398592 C19.5285634,17.1398592 19.4983662,17.1347324 19.4701972,17.1246761 L18.9980845,16.954507 C17.6991549,16.4929014 16.5509859,16.262 15.5535775,16.262 C14.6580282,16.262 13.648,16.448338 12.5230423,16.8206197 L11.9810704,17.0053803 C11.927662,17.0233239 11.8683944,17.0233239 11.8149859,17.0053803 L11.2730141,16.8206197 C10.1449014,16.4473521 9.13352113,16.2610141 8.23909859,16.262 C7.24169014,16.262 6.0908169,16.4938873 4.78647887,16.9574648 L4.32428169,17.1232958 C4.20461972,17.1664789 4.06760563,17.1169859 4.01802817,17.0122817 C4.00630986,16.9874366 4,16.9610141 4,16.9341972 L4,7.04290141 C4.00022535,6.96028169 4.05723944,6.88574648 4.14467606,6.85380282 L4.3524507,6.7723662 C5.79312676,6.25752113 7.08822535,6 8.23752113,6 C9.31695775,6 10.5266479,6.22892958 11.8663662,6.68659155 L11.896338,6.69546479 L11.9263099,6.68659155 C13.2662535,6.23188732 14.4752676,6.00453521 15.5535775,6.00453521 C16.691831,6.00453521 17.9867042,6.26185915 19.4386479,6.77690141 L19.648,6.85261972 C19.7361127,6.8843662 19.7931268,6.95969014 19.7926761,7.04290141 L19.7926761,16.9341972 Z"/>
  </g>
</svg>
