<svg xmlns="http://www.w3.org/2000/svg" viewBox="0 0 20 20">
  <g fill="none" fill-rule="evenodd">
    <path fill="#565659" fill-rule="nonzero" d="M10,18.5185185 C14.7046479,18.5185185 18.5185185,14.7046479 18.5185185,10 C18.5185185,5.29535213 14.7046479,1.48148148 10,1.48148148 C5.29535213,1.48148148 1.48148148,5.29535213 1.48148148,10 C1.48148148,14.7046479 5.29535213,18.5185185 10,18.5185185 Z"/>
    <path fill="#AFBED1" fill-rule="nonzero" d="M10,20 C4.4771525,20 0,15.5228475 0,10 C0,4.4771525 4.4771525,0 10,0 C15.5228475,0 20,4.4771525 20,10 C20,15.5228475 15.5228475,20 10,20 Z"/>
    <path fill="#FFFFFF" fill-rule="nonzero" d="M6.31076389,9.62962963 L8.90335644,9.62962963 L8.90335644,10.3703704 L6.31076389,10.3703704 L7.42187496,11.4814815 L7.05150463,11.8518519 L3.7181713,10 L7.05150463,8.14814815 L7.42187496,8.51851852 L6.31076389,9.62962963 Z M13.6957465,9.62962963 L12.5846354,8.51851852 L12.9550058,8.14814815 L16.2883391,10 L12.9550058,11.8518519 L12.5846354,11.4814815 L13.6957465,10.3703704 L11.1031539,10.3703704 L11.1031539,9.62962963 L13.6957465,9.62962963 Z M10.3703704,6.37167245 L11.4814815,5.26056134 L11.8518519,5.63093171 L10,8.96426504 L8.14814815,5.63093171 L8.51851852,5.26056134 L9.62962963,6.37167245 L9.62962963,3.77907986 L10.3703704,3.77907986 L10.3703704,6.37167245 Z M10.3703704,13.7037037 L10.3703704,16.2962963 L9.62962963,16.2962963 L9.62962963,13.7037037 L8.51851852,14.8148148 L8.14814815,14.4444444 L10,11.1111111 L11.8518519,14.4444444 L11.4814815,14.8148148 L10.3703704,13.7037037 Z"/>
  </g>
</svg>
