<?xml version="1.0" encoding="UTF-8"?>
<svg width="48px" height="48px" viewBox="0 0 48 48" version="1.1" xmlns="http://www.w3.org/2000/svg" xmlns:xlink="http://www.w3.org/1999/xlink">
    <!-- Generator: Sketch 55.2 (78181) - https://sketchapp.com -->
    <title>device-accesspoint-outline</title>
    <desc>Created with Sketch.</desc>
    <g id="Page-1" stroke="none" stroke-width="1" fill="none" fill-rule="evenodd">
        <g id="device-accesspoint-outline" fill="#000000" fill-rule="nonzero">
            <path d="M10,0 L38,0 C43.5228475,0 48,4.4771525 48,10 L48,38 C48,43.5228475 43.5228475,48 38,48 L10,48 C4.4771525,48 0,43.5228475 0,38 L0,10 C0,4.4771525 4.4771525,0 10,0 Z M10.6363636,3 C6.41891646,3 3,6.41891646 3,10.6363636 L3,37.3636364 C3,41.5810835 6.41891646,45 10.6363636,45 L37.3636364,45 C41.5810835,45 45,41.5810835 45,37.3636364 L45,10.6363636 C45,6.41891646 41.5810835,3 37.3636364,3 L10.6363636,3 Z M24.122449,38 C23.0798706,38 22.2346939,37.1752614 22.2346939,36.1578947 C22.2346939,35.1405281 23.0798706,34.3157895 24.122449,34.3157895 C25.1650273,34.3157895 26.0102041,35.1405281 26.0102041,36.1578947 C26.0102041,37.1752614 25.1650273,38 24.122449,38 Z M41.7163265,16.2476842 C42.3506122,16.7767368 42.4253673,17.7066316 41.882449,18.3255789 C41.5849388,18.6667368 41.1598163,18.8421053 40.7339388,18.8421053 C40.3873469,18.8421053 40.0377347,18.7256842 39.7545714,18.4891579 C35.4066939,14.8638947 30.0016735,12.9473684 24.122449,12.9473684 C18.2439796,12.9473684 12.8389592,14.8638947 8.49108163,18.4884211 C7.85906122,19.0167368 6.90385714,18.9445263 6.36169388,18.3255789 C5.82028571,17.7066316 5.89504082,16.7767368 6.52932653,16.2476842 C11.4306939,12.1604211 17.514551,10 24.122449,10 C30.7303469,10 36.8142041,12.1604211 41.7163265,16.2476842 Z M35.629449,22.1063158 C36.2833673,22.6095789 36.3966327,23.5365263 35.8801429,24.1753684 C35.5826327,24.5437895 35.1401429,24.7368421 34.6931224,24.7368421 C34.3661633,24.7368421 34.0354286,24.6329474 33.7598163,24.42 C30.8556939,22.1851579 27.6140408,21.0526316 24.122449,21.0526316 C20.6308571,21.0526316 17.3892041,22.1851579 14.4865918,24.4207368 C13.8334286,24.9254737 12.8827551,24.8164211 12.3655102,24.1761053 C11.8490204,23.5365263 11.9607755,22.6103158 12.6162041,22.1063158 C16.064,19.4514737 19.9354082,18.1052632 24.122449,18.1052632 C28.3102449,18.1052632 32.1816531,19.4514737 35.629449,22.1063158 Z M29.7864694,27.8927368 C30.4796531,28.3458947 30.663898,29.2617895 30.198,29.9374737 C29.9072857,30.3604211 29.4300612,30.5895789 28.9430204,30.5895789 C28.6538163,30.5895789 28.3623469,30.5085263 28.1025918,30.3390526 C25.742898,28.7931579 22.502,28.7931579 20.1423061,30.3390526 C19.4468571,30.7929474 18.5105306,30.6124211 18.046898,29.9374737 C17.5817551,29.2610526 17.766,28.3458947 18.4584286,27.8927368 C20.1385306,26.7918947 22.0965102,26.2105263 24.122449,26.2105263 C26.1483878,26.2105263 28.1063673,26.7918947 29.7864694,27.8927368 Z" id="Combined-Shape"></path>
        </g>
    </g>
</svg>