<?xml version="1.0" encoding="UTF-8"?>
<svg width="48px" height="48px" viewBox="0 0 48 48" version="1.1" xmlns="http://www.w3.org/2000/svg" xmlns:xlink="http://www.w3.org/1999/xlink">
    <!-- Generator: Sketch 55.2 (78181) - https://sketchapp.com -->
    <title>device-wlc</title>
    <desc>Created with Sketch.</desc>
    <g id="Page-1" stroke="none" stroke-width="1" fill="none" fill-rule="evenodd">
        <g id="device-wlc" fill="#000000">
            <path d="M10,0 L38,0 C43.5228475,-1.01453063e-15 48,4.4771525 48,10 L48,38 C48,43.5228475 43.5228475,48 38,48 L10,48 C4.4771525,48 4.22906743e-15,43.5228475 0,38 L0,10 C-6.76353751e-16,4.4771525 4.4771525,4.56724431e-15 10,0 Z M24.9541667,14.9680902 L27.9492353,17.9544146 L28.9475915,16.9589732 L23.9558106,8 L18.9640297,16.9589732 L19.9623859,17.9544146 L22.9574544,14.9680902 L22.9574544,21.9361805 L24.9541667,21.9361805 L24.9541667,14.9680902 Z M24.9541667,33.0319098 L27.9492353,36.0182342 L28.9475915,35.0227927 L23.9558106,26.0638195 L18.9640297,35.0227927 L19.9623859,36.0182342 L22.9574544,33.0319098 L22.9574544,40 L24.9541667,40 L24.9541667,33.0319098 Z M36.0583891,28.6171332 L40.2940556,28.6171332 L40.2940556,27.2093664 L30.4108336,24.3938327 L33.2346113,34.2482005 L34.6465002,34.2482005 L34.6465002,30.0249001 L39.5881111,34.9520839 L41,33.544317 L36.0583891,28.6171332 Z M11.9416109,28.6171332 L7,33.544317 L8.41188884,34.9520839 L13.3534998,30.0249001 L13.3534998,34.2482005 L14.7653887,34.2482005 L17.5891662,24.3938327 L7.70594442,27.2093664 L7.70594442,28.6171332 L11.9416109,28.6171332 Z" id="Combined-Shape"></path>
        </g>
    </g>
</svg>