<svg xmlns="http://www.w3.org/2000/svg" viewBox="0 0 24 24">
  <path fill="#AFBED1" d="M13,19 C13,18.4477153 12.5522847,18 12,18 L12,18 L8,18 C7.44771525,18 7,18.4477153 7,19 L7,19 L7,20 L5,20 L5,22.8 C5,23.52 4.4,24 3.8,24 C3.2,24 2.6,23.52 2.6,22.8 L2.6,22.8 L2.6,2.4 L1.2,2.4 C0.6,2.4 0,1.92 0,1.2 C0,0.6 0.6,0 1.2,0 L1.2,0 L3.8,0 C4.4,0 5,0.6 5,1.2 L5,1.2 L5,3.6 L22.8,3.6 C23.4,3.6 24,4.2 24,4.8 L24,4.8 L24,18.5 C24,19.5 24,20 23,20 L23,20 L13,20 Z M15.5,13 C15.2238576,13 15,13.2238576 15,13.5 L15,13.5 L15,17.5 C15,17.7761424 15.2238576,18 15.5,18 C15.7761424,18 16,17.7761424 16,17.5 L16,17.5 L16,13.5 C16,13.2238576 15.7761424,13 15.5,13 Z M17.5,13 C17.2238576,13 17,13.2238576 17,13.5 L17,13.5 L17,17.5 C17,17.7761424 17.2238576,18 17.5,18 C17.7761424,18 18,17.7761424 18,17.5 L18,17.5 L18,13.5 C18,13.2238576 17.7761424,13 17.5,13 Z M19.5,13 C19.2238576,13 19,13.2238576 19,13.5 L19,13.5 L19,17.5 C19,17.7761424 19.2238576,18 19.5,18 C19.7761424,18 20,17.7761424 20,17.5 L20,17.5 L20,13.5 C20,13.2238576 19.7761424,13 19.5,13 Z M21.5,13 C21.2238576,13 21,13.2238576 21,13.5 L21,13.5 L21,17.5 C21,17.7761424 21.2238576,18 21.5,18 C21.7761424,18 22,17.7761424 22,17.5 L22,17.5 L22,13.5 C22,13.2238576 21.7761424,13 21.5,13 Z M12,7 L5,7 L5,14 L12,14 L12,7 Z M19.5,7 C18.75,7 18,7.75 18,8.5 C18,9.4 18.75,10 19.5,10 C20.25,10 21,9.4 21,8.5 C21,7.75 20.25,7 19.5,7 Z"/>
</svg>
