<svg xmlns="http://www.w3.org/2000/svg" viewBox="0 0 20 20">
  <g fill="none">
    <path fill="#404041" d="M14.8148148,18.5185185 C16.8603139,18.5185185 18.5185185,16.8603139 18.5185185,14.8148148 L18.5185185,5.18518519 C18.5185185,3.13968611 16.8603139,1.48148148 14.8148148,1.48148148 L5.18518519,1.48148148 C3.13968611,1.48148148 1.48148148,3.13968611 1.48148148,5.18518519 L1.48148148,14.8148148 C1.48148148,16.8603139 3.13968611,18.5185185 5.18518519,18.5185185 L14.8148148,18.5185185 Z" transform="matrix(1 0 0 -1 0 20)"/>
    <path fill="#AFBED1" d="M14.8148148,20 L5.18518519,20 C2.32148648,20 0,17.6785135 0,14.8148148 L0,5.18518519 C0,2.32148648 2.32148648,0 5.18518519,0 L14.8148148,0 C17.6785135,0 20,2.32148648 20,5.18518519 L20,14.8148148 C20,17.6785135 17.6785135,20 14.8148148,20 Z" transform="matrix(1 0 0 -1 0 20)"/>
    <path fill="#FFFFFF" d="M8.88888963,13.7208029 C8.88888963,13.1071532 9.38635104,12.6096918 10.0000007,12.6096918 C10.6136505,12.6096918 11.1111119,13.1071532 11.1111119,13.7208029 C11.1111119,14.3344526 10.6136505,14.831914 10.0000007,14.831914 C9.38635104,14.831914 8.88888963,14.3344526 8.88888963,13.7208029 Z M3.95804901,8.28042141 C3.80935915,8.420892 3.57494828,8.41422896 3.43447767,8.26553911 C3.29400707,8.11684926 3.30067008,7.88243837 3.44935993,7.74196778 C5.24880316,6.04199381 7.66211393,5.19113329 9.99999985,5.18515442 C12.4047559,5.17912999 14.7341156,6.06701385 16.5549985,7.8443297 C16.7013777,7.98720659 16.7042169,8.22169496 16.56134,8.36807415 C16.4184632,8.51445333 16.1839748,8.51729252 16.0375956,8.37441563 C14.3776761,6.75421185 12.1951341,5.93670981 9.99999985,5.92603193 C7.82231548,5.91543892 5.6321153,6.69889378 3.95804901,8.28042141 Z M5.43231033,9.92259793 C5.27995203,10.059081 5.04579988,10.0462115 4.90931686,9.89385319 C4.77283384,9.74149489 4.78570329,9.50734274 4.93806158,9.3708597 C6.34097152,8.11412874 8.16627881,7.4132817 10.0022665,7.42451356 C11.8918799,7.43607341 13.711591,8.12104526 15.0663859,9.37490793 C15.2165084,9.51384637 15.2255749,9.74817652 15.0866365,9.89829911 C14.9476981,10.0484216 14.7133679,10.0574881 14.5632453,9.9185497 C13.3475261,8.79340156 11.7065107,8.175694 9.99773504,8.16524044 C8.34688637,8.15514119 6.69905461,8.78784452 5.43231033,9.92259793 Z M7.66719126,11.3921932 C7.52139756,11.5356674 7.28689959,11.5337871 7.14342533,11.3879934 C6.99995107,11.2421997 7.00183136,11.0077017 7.14762505,10.8642275 C7.84265022,10.1802595 9.05466985,9.66599822 9.99242244,9.64680637 C10.9876594,9.62643807 12.1080451,10.1077951 12.8565762,10.8684272 C13.0000504,11.0142209 12.9981701,11.2487189 12.8523764,11.3921932 C12.7065827,11.5356674 12.4720847,11.5337871 12.3286105,11.3879934 C11.7195535,10.7690901 10.7936833,10.3713038 10.0075791,10.387392 C9.25957141,10.4027006 8.22783719,10.8404666 7.66719126,11.3921932 Z"/>
  </g>
</svg>
