<?xml version="1.0" encoding="UTF-8"?>
<svg width="52px" height="52px" viewBox="0 0 52 52" version="1.1" xmlns="http://www.w3.org/2000/svg" xmlns:xlink="http://www.w3.org/1999/xlink">
    <!-- Generator: Sketch 55.2 (78181) - https://sketchapp.com -->
    <title>device-router-outline</title>
    <desc>Created with Sketch.</desc>
    <g id="Page-1" stroke="none" stroke-width="1" fill="none" fill-rule="evenodd">
        <g id="device-router-outline" fill="#000000" fill-rule="nonzero">
            <path d="M26,51.5 C11.9167389,51.5 0.5,40.0832611 0.5,26 C0.5,11.9167389 11.9167389,0.5 26,0.5 C40.0832611,0.5 51.5,11.9167389 51.5,26 C51.5,40.0832611 40.0832611,51.5 26,51.5 Z M26,48.5 C38.4264069,48.5 48.5,38.4264069 48.5,26 C48.5,13.5735931 38.4264069,3.5 26,3.5 C13.5735931,3.5 3.5,13.5735931 3.5,26 C3.5,38.4264069 13.5735931,48.5 26,48.5 Z M18.1540106,32.2784859 L23.1125882,27.3199083 L24.5353179,28.7426379 L19.5767403,33.7012155 L23.8359394,33.7102054 L23.8389361,35.1299384 L13.9067978,37.9484284 L16.7252877,28.01629 L18.1450207,28.0192867 L18.1540106,32.2784859 Z M32.2784859,18.1540106 L28.0192866,18.1450208 L28.01629,16.7252877 L37.9484284,13.9067978 L35.1299384,23.8389361 L33.7102053,23.8359395 L33.7012155,19.5767403 L28.7426379,24.5353179 L27.3199082,23.1125883 L32.2784859,18.1540106 Z M19.6608809,18.2565962 L19.6518911,13.997397 L21.0716242,14.0003936 L23.9320665,23.9445183 L13.9879418,21.084076 L13.9849452,19.6643429 L18.2441444,19.6733327 L13.2645906,14.6937788 L14.6813271,13.2770424 L19.6608809,18.2565962 Z M33.7434038,32.3391191 L38.7229576,37.3186729 L37.3062212,38.7354094 L32.3266673,33.7558556 L32.3356571,38.0150548 L30.915924,38.0120582 L28.0554817,28.0679335 L37.9996064,30.9283758 L38.002603,32.3481089 L33.7434038,32.3391191 Z" id="Combined-Shape"></path>
        </g>
    </g>
</svg>