<svg xmlns="http://www.w3.org/2000/svg" viewBox="0 0 20 20">
  <g fill="none" fill-rule="evenodd">
    <path fill="#AFBED1" fill-rule="nonzero" d="M20,5.18518519 L20,14.8148148 C20,17.6785135 17.6785135,20 14.8148148,20 L5.18518519,20 C2.32148648,20 0,17.6785135 0,14.8148148 L0,5.18518519 C0,2.32148648 2.32148648,0 5.18518519,0 L14.8148148,0 C17.6785135,0 20,2.32148648 20,5.18518519 Z"/>
    <path fill="#FFFFFF" fill-rule="nonzero" d="M8.14814815,12.962963 L7.03703704,14.0740741 L9.62962963,14.0740741 L9.62962963,14.8148148 L7.03703704,14.8148148 L8.14814815,15.9259259 L7.77777778,16.2962963 L4.44444444,14.4444444 L7.77777778,12.5925926 L8.14814815,12.962963 Z M7.03703704,7.40740741 L9.62962963,7.40740741 L9.62962963,8.14814815 L7.03703704,8.14814815 L8.14814815,9.25925926 L7.77777778,9.62962963 L4.44444444,7.77777778 L7.77777778,5.92592593 L8.14814815,6.2962963 L7.03703704,7.40740741 Z M12.962963,11.8518519 L11.8518519,10.7407407 L12.2222222,10.3703704 L15.5555556,12.2222222 L12.2222222,14.0740741 L11.8518519,13.7037037 L12.962963,12.5925926 L10.3703704,12.5925926 L10.3703704,11.8518519 L12.962963,11.8518519 Z M12.962963,5.18518519 L11.8518519,4.07407407 L12.2222222,3.7037037 L15.5555556,5.55555556 L12.2222222,7.40740741 L11.8518519,7.03703704 L12.962963,5.92592593 L10.3703704,5.92592593 L10.3703704,5.18518519 L12.962963,5.18518519 Z"/>
  </g>
</svg>
