<svg xmlns="http://www.w3.org/2000/svg" viewBox="0 0 20 20">
  <g fill="none" fill-rule="evenodd">
    <path fill="#404041" fill-rule="nonzero" d="M5.18518519,1.48148148 C3.13968611,1.48148148 1.48148148,3.13968611 1.48148148,5.18518519 L1.48148148,14.8148148 C1.48148148,16.8603139 3.13968611,18.5185185 5.18518519,18.5185185 L14.8148148,18.5185185 C16.8603139,18.5185185 18.5185185,16.8603139 18.5185185,14.8148148 L18.5185185,5.18518519 C18.5185185,3.13968611 16.8603139,1.48148148 14.8148148,1.48148148 L5.18518519,1.48148148 Z"/>
    <path fill="#AFBED1" fill-rule="nonzero" d="M5.18518519,0 L14.8148148,0 C17.6785135,0 20,2.32148648 20,5.18518519 L20,14.8148148 C20,17.6785135 17.6785135,20 14.8148148,20 L5.18518519,20 C2.32148648,20 0,17.6785135 0,14.8148148 L0,5.18518519 C0,2.32148648 2.32148648,0 5.18518519,0 Z"/>
    <path fill="#FFFFFF" fill-rule="nonzero" d="M10.3703704,6.98276251 L10.3703704,9.57535511 L9.62962963,9.57535511 L9.62962963,6.98276251 L8.51851852,8.09387363 L8.14814815,7.72350326 L10,4.39016992 L11.8518519,7.72350326 L11.4814815,8.09387363 L10.3703704,6.98276251 Z M10.3703704,13.7037037 L10.3703704,16.2962963 L9.62962963,16.2962963 L9.62962963,13.7037037 L8.51851852,14.8148148 L8.14814815,14.4444444 L10,11.1111111 L11.8518519,14.4444444 L11.4814815,14.8148148 L10.3703704,13.7037037 Z M14.489817,12.0611135 L16.3230567,13.8943533 L15.7992739,14.4181361 L13.9660341,12.5848963 L13.9660341,14.1562447 L13.4422513,14.1562447 L12.3946857,10.489765 L16.0611653,11.5373307 L16.0611653,12.0611135 L14.489817,12.0611135 Z M5.54296987,12.0611135 L3.97162147,12.0611135 L3.97162147,11.5373307 L7.63810104,10.489765 L6.59053547,14.1562447 L6.06675267,14.1562447 L6.06675267,12.5848963 L4.23351287,14.4181361 L3.70973007,13.8943533 L5.54296987,12.0611135 Z"/>
  </g>
</svg>
