<?xml version="1.0" encoding="UTF-8"?>
<svg width="48px" height="48px" viewBox="0 0 48 48" version="1.1" xmlns="http://www.w3.org/2000/svg" xmlns:xlink="http://www.w3.org/1999/xlink">
    <!-- Generator: Sketch 55.2 (78181) - https://sketchapp.com -->
    <title>device-router</title>
    <desc>Created with Sketch.</desc>
    <g id="Page-1" stroke="none" stroke-width="1" fill="none" fill-rule="evenodd">
        <g id="device-router" fill="#000000">
            <path d="M24,0 C37.254834,-2.4348735e-15 48,10.745166 48,24 C48,37.254834 37.254834,48 24,48 C10.745166,48 1.623249e-15,37.254834 0,24 C-1.623249e-15,10.745166 10.745166,2.4348735e-15 24,0 Z M16.1540106,30.2784859 L16.1450207,26.0192867 L14.7252877,26.01629 L11.9067978,35.9484284 L21.8389361,33.1299384 L21.8359394,31.7102054 L17.5767403,31.7012155 L22.5353179,26.7426379 L21.1125882,25.3199083 L16.1540106,30.2784859 Z M30.2784859,16.1540106 L25.3199082,21.1125883 L26.7426379,22.5353179 L31.7012155,17.5767403 L31.7102053,21.8359395 L33.1299384,21.8389361 L35.9484284,11.9067978 L26.01629,14.7252877 L26.0192866,16.1450208 L30.2784859,16.1540106 Z M17.6608809,16.2565962 L12.6813271,11.2770424 L11.2645906,12.6937788 L16.2441444,17.6733327 L11.9849452,17.6643429 L11.9879418,19.084076 L21.9320665,21.9445183 L19.0716242,12.0003936 L17.6518911,11.997397 L17.6608809,16.2565962 Z M31.7434038,30.3391191 L36.002603,30.3481089 L35.9996064,28.9283758 L26.0554817,26.0679335 L28.915924,36.0120582 L30.3356571,36.0150548 L30.3266673,31.7558556 L35.3062212,36.7354094 L36.7229576,35.3186729 L31.7434038,30.3391191 Z" id="Combined-Shape"></path>
        </g>
    </g>
</svg>