<?xml version="1.0" encoding="UTF-8"?>
<svg width="48px" height="48px" viewBox="0 0 48 48" version="1.1" xmlns="http://www.w3.org/2000/svg" xmlns:xlink="http://www.w3.org/1999/xlink">
    <!-- Generator: Sketch 55.2 (78181) - https://sketchapp.com -->
    <title>device-accesspoint</title>
    <desc>Created with Sketch.</desc>
    <g id="Page-1" stroke="none" stroke-width="1" fill="none" fill-rule="evenodd">
        <g id="device-accesspoint" fill="#000000">
            <path d="M10,0 L38,0 C43.5228475,-1.01453063e-15 48,4.4771525 48,10 L48,38 C48,43.5228475 43.5228475,48 38,48 L10,48 C4.4771525,48 4.22906743e-15,43.5228475 0,38 L0,10 C-6.76353751e-16,4.4771525 4.4771525,4.56724431e-15 10,0 Z M24.122449,38 C25.1650273,38 26.0102041,37.1752614 26.0102041,36.1578947 C26.0102041,35.1405281 25.1650273,34.3157895 24.122449,34.3157895 C23.0798706,34.3157895 22.2346939,35.1405281 22.2346939,36.1578947 C22.2346939,37.1752614 23.0798706,38 24.122449,38 Z M41.7163265,16.2476842 C36.8142041,12.1604211 30.7303469,10 24.122449,10 C17.514551,10 11.4306939,12.1604211 6.52932653,16.2476842 C5.89504082,16.7767368 5.82028571,17.7066316 6.36169388,18.3255789 C6.90385714,18.9445263 7.85906122,19.0167368 8.49108163,18.4884211 C12.8389592,14.8638947 18.2439796,12.9473684 24.122449,12.9473684 C30.0016735,12.9473684 35.4066939,14.8638947 39.7545714,18.4891579 C40.0377347,18.7256842 40.3873469,18.8421053 40.7339388,18.8421053 C41.1598163,18.8421053 41.5849388,18.6667368 41.882449,18.3255789 C42.4253673,17.7066316 42.3506122,16.7767368 41.7163265,16.2476842 Z M35.629449,22.1063158 C32.1816531,19.4514737 28.3102449,18.1052632 24.122449,18.1052632 C19.9354082,18.1052632 16.064,19.4514737 12.6162041,22.1063158 C11.9607755,22.6103158 11.8490204,23.5365263 12.3655102,24.1761053 C12.8827551,24.8164211 13.8334286,24.9254737 14.4865918,24.4207368 C17.3892041,22.1851579 20.6308571,21.0526316 24.122449,21.0526316 C27.6140408,21.0526316 30.8556939,22.1851579 33.7598163,24.42 C34.0354286,24.6329474 34.3661633,24.7368421 34.6931224,24.7368421 C35.1401429,24.7368421 35.5826327,24.5437895 35.8801429,24.1753684 C36.3966327,23.5365263 36.2833673,22.6095789 35.629449,22.1063158 Z M29.7864694,27.8927368 C28.1063673,26.7918947 26.1483878,26.2105263 24.122449,26.2105263 C22.0965102,26.2105263 20.1385306,26.7918947 18.4584286,27.8927368 C17.766,28.3458947 17.5817551,29.2610526 18.046898,29.9374737 C18.5105306,30.6124211 19.4468571,30.7929474 20.1423061,30.3390526 C22.502,28.7931579 25.742898,28.7931579 28.1025918,30.3390526 C28.3623469,30.5085263 28.6538163,30.5895789 28.9430204,30.5895789 C29.4300612,30.5895789 29.9072857,30.3604211 30.198,29.9374737 C30.663898,29.2617895 30.4796531,28.3458947 29.7864694,27.8927368 Z" id="Combined-Shape"></path>
        </g>
    </g>
</svg>