<?xml version="1.0" encoding="UTF-8"?>
<svg width="48px" height="48px" viewBox="0 0 48 48" version="1.1" xmlns="http://www.w3.org/2000/svg" xmlns:xlink="http://www.w3.org/1999/xlink">
    <!-- Generator: Sketch 55.2 (78181) - https://sketchapp.com -->
    <title>device-switch</title>
    <desc>Created with Sketch.</desc>
    <g id="Page-1" stroke="none" stroke-width="1" fill="none" fill-rule="evenodd">
        <g id="device-switch" fill="#000000">
            <path d="M10,0 L38,0 C43.5228475,-1.01453063e-15 48,4.4771525 48,10 L48,38 C48,43.5228475 43.5228475,48 38,48 L10,48 C4.4771525,48 4.22906743e-15,43.5228475 0,38 L0,10 C-6.76353751e-16,4.4771525 4.4771525,4.56724431e-15 10,0 Z M19,32 L18,31 L9,36 L18,41 L19,40 L16,37 L23,37 L23,35 L16,35 L19,32 Z M16,17 L19,14 L18,13 L9,18 L18,23 L19,22 L16,19 L23,19 L23,17 L16,17 Z M32,29 L25,29 L25,31 L32,31 L29,34 L30,35 L39,30 L30,25 L29,26 L32,29 Z M32,11 L25,11 L25,13 L32,13 L29,16 L30,17 L39,12 L30,7 L29,8 L32,11 Z" id="Combined-Shape"></path>
        </g>
    </g>
</svg>