<?xml version="1.0" encoding="UTF-8"?>
<svg width="35px" height="25px" viewBox="0 0 35 25" version="1.1" xmlns="http://www.w3.org/2000/svg" xmlns:xlink="http://www.w3.org/1999/xlink">
    <!-- Generator: Sketch 56 (81588) - https://sketch.com -->
    <title>book</title>
    <desc>Created with Sketch.</desc>
    <g id="Page-1" stroke="none" stroke-width="1" fill="none" fill-rule="evenodd">
        <g id="book" fill="#58585B" fill-rule="nonzero">
            <path d="M17.5,1.37575979 C18.0056329,0.685482226 19.2792794,0.254373162 21.3209395,0.0824326046 C23.8333899,-0.12915607 27.3324707,0.0665858925 31.8181818,0.669658501 L35,1.89461933 L35,24.5469533 L34.253767,25 L33.2249577,25 C31.6136555,24.3652226 30.4677057,23.9485158 29.7871085,23.7498797 C27.4758447,23.0753241 25.8775176,22.8968924 25.195296,22.8968924 C23.7755202,22.8968924 22.702696,23.3591401 20.0677484,24.0963836 C19.7202593,24.1936092 18.9401007,24.323783 17.7272727,24.4869052 L17.7272727,24.5469533 C17.6500255,24.5369187 17.5742679,24.5269975 17.5,24.5171898 C17.4257321,24.5269975 17.3499745,24.5369187 17.2727273,24.5469533 L17.2727273,24.4869052 C16.0598993,24.323783 15.2797407,24.1936092 14.9322516,24.0963836 C12.297304,23.3591401 11.2244798,22.8968924 9.804704,22.8968924 C9.12248236,22.8968924 7.52415527,23.0753241 5.21289143,23.7498797 C4.53229427,23.9485158 3.38634454,24.3652226 1.77504223,25 L0.746232982,25 L0,24.5469533 L0,1.89461933 L3.18181818,0.669658501 C7.66752927,0.0665858925 11.1666101,-0.12915607 13.6790605,0.0824326046 C15.7207206,0.254373162 16.9943671,0.685482226 17.5,1.37575979 Z M3.18181818,3.80347057 L3.18181818,21.0192445 C5.97742133,20.6739563 8.09863345,20.5013122 9.54545455,20.5013122 C10.9922756,20.5013122 13.1134877,20.6739563 15.9090909,21.0192445 L15.9090909,3.80347057 C13.4390512,3.13496532 11.4786566,2.80071269 10.0279073,2.80071269 C8.57715791,2.80071269 6.29512824,3.13496532 3.18181818,3.80347057 Z M5,6.52175066 L14.0909091,6.52175066 L14.0909091,8.3339374 L5,8.3339374 L5,6.52175066 Z M5,11.0522175 C7.01811033,10.7529247 8.53326182,10.6032783 9.54545455,10.6032783 C10.5576473,10.6032783 12.0727987,10.7529247 14.0909091,11.0522175 L14.0909091,12.8644042 C12.0825932,12.6859111 10.5674417,12.5966646 9.54545455,12.5966646 C8.52346736,12.5966646 7.00831588,12.6859111 5,12.8644042 L5,11.0522175 Z M5,15.5826843 L14.0909091,15.5826843 L14.0909091,17.394871 C12.0791887,17.1321567 10.5640372,17.0007995 9.54545455,17.0007995 C8.52687191,17.0007995 7.01172037,17.1321567 5,17.394871 L5,15.5826843 Z M31.8181818,3.80347057 C28.7048717,3.13496532 26.4228421,2.80071269 24.9720927,2.80071269 C23.5213434,2.80071269 21.5609488,3.13496532 19.0909091,3.80347057 L19.0909091,21.0192445 C21.8865123,20.6739563 24.0077244,20.5013122 25.4545455,20.5013122 C26.9013665,20.5013122 29.0225786,20.6739563 31.8181818,21.0192445 L31.8181818,3.80347057 Z M30,6.52175066 L30,8.3339374 L20.9090909,8.3339374 L20.9090909,6.52175066 L30,6.52175066 Z M30,11.0522175 L30,12.8644042 C27.9916841,12.6859111 26.4765326,12.5966646 25.4545455,12.5966646 C24.4325583,12.5966646 22.9174068,12.6859111 20.9090909,12.8644042 L20.9090909,11.0522175 C22.9272013,10.7529247 24.4423527,10.6032783 25.4545455,10.6032783 C26.4667382,10.6032783 27.9818896,10.7529247 30,11.0522175 Z M30,15.5826843 L30,17.394871 C27.9882796,17.1321567 26.4731281,17.0007995 25.4545455,17.0007995 C24.4359628,17.0007995 22.9208113,17.1321567 20.9090909,17.394871 L20.9090909,15.5826843 L30,15.5826843 Z" id="Combined-Shape"></path>
        </g>
    </g>
</svg>