<?xml version="1.0" encoding="UTF-8"?>
<svg width="96px" height="88px" viewBox="0 0 96 88" version="1.1" xmlns="http://www.w3.org/2000/svg" xmlns:xlink="http://www.w3.org/1999/xlink">
    <!-- Generator: Sketch 58 (84663) - https://sketch.com -->
    <title>icon/cxcollector</title>
    <desc>Created with Sketch.</desc>
    <g id="Day-0" stroke="none" stroke-width="1" fill="none" fill-rule="evenodd">
        <g id="Prerequisites" transform="translate(-320.000000, -862.000000)">
            <g id="icon/cxcollector" transform="translate(320.000000, 860.674089)">
                <g id="Group-4" transform="translate(0.000000, 1.325911)">
                    <path d="M95.7883443,23.5342325 C95.7883443,26.1553613 93.6259734,28.3001049 90.9829624,28.3001049 L4.80538194,28.3001049 C2.16237092,28.3001049 0,26.1553613 0,23.5342325 L0,4.76620934 C0,2.14508057 2.16237092,0 4.80538194,0 L90.9829624,0 C93.6259734,0 95.7883443,2.14508057 95.7883443,4.76620934 L95.7883443,23.5342325 Z" id="Path" fill="#2B5592"></path>
                    <path d="M17.323424,8.08574427 C13.9525236,8.08574427 11.2092743,10.8063609 11.2092743,14.1497823 C11.2092743,17.4932037 13.9525236,20.2140905 17.323424,20.2140905 C20.6943243,20.2140905 23.4375736,17.4932037 23.4375736,14.1497823 C23.4375736,10.8063609 20.6943243,8.08574427 17.323424,8.08574427" id="Path" fill="#E5EBEF"></path>
                    <path d="M58.2287155,14.9904982 L58.3749159,14.9966634 C59.2422605,15.0701415 59.9230143,15.7913238 59.9230143,16.6706485 C59.9230143,17.5988245 59.1645201,18.3511357 58.2287155,18.3511357 C57.2932506,18.3511357 56.5347564,17.5984876 56.5347564,16.6706485 C56.5347564,15.7424724 57.2932506,14.9904982 58.2287155,14.9904982 Z M65.0052993,14.9904982 C65.9407642,14.9904982 66.6992584,15.7424724 66.6992584,16.6706485 C66.6992584,17.5988245 65.9407642,18.3511357 65.0052993,18.3511357 C64.0698344,18.3511357 63.3113401,17.5984876 63.3113401,16.6706485 C63.3113401,15.7424724 64.0698344,14.9904982 65.0052993,14.9904982 Z M71.7818831,14.9904982 C72.7173479,14.9904982 73.4758422,15.7424724 73.4758422,16.6706485 C73.4758422,17.5988245 72.7173479,18.3511357 71.7818831,18.3511357 C70.8460785,18.3511357 70.0875843,17.5984876 70.0875843,16.6706485 C70.0875843,15.7424724 70.8460785,14.9904982 71.7818831,14.9904982 Z M78.558297,14.9904982 C79.4937619,14.9904982 80.2525958,15.7424724 80.2525958,16.6706485 C80.2525958,17.5988245 79.4937619,18.3511357 78.558297,18.3511357 C77.6228321,18.3511357 76.8643379,17.5984876 76.8643379,16.6706485 C76.8643379,15.7424724 77.6228321,14.9904982 78.558297,14.9904982 Z M85.3348808,14.9904982 C86.2703457,14.9904982 87.0288399,15.7424724 87.0288399,16.6706485 C87.0288399,17.5988245 86.2703457,18.3511357 85.3348808,18.3511357 C84.3994159,18.3511357 83.640582,17.5984876 83.640582,16.6706485 C83.640582,15.7424724 84.3994159,14.9904982 85.3348808,14.9904982 Z M54.8405934,9.94944094 C55.7760583,9.94944094 56.5345526,10.7014152 56.5345526,11.6295912 C56.5345526,12.5577673 55.7760583,13.3100784 54.8405934,13.3100784 C53.9047889,13.3100784 53.1462946,12.5577673 53.1462946,11.6295912 C53.1462946,10.7014152 53.9047889,9.94944094 54.8405934,9.94944094 Z M61.6170074,9.94944094 C62.5524723,9.94944094 63.3113062,10.7014152 63.3113062,11.6295912 C63.3113062,12.5577673 62.5524723,13.3100784 61.6170074,13.3100784 C60.6815425,13.3100784 59.9230483,12.5577673 59.9230483,11.6295912 C59.9230483,10.7014152 60.6815425,9.94944094 61.6170074,9.94944094 Z M68.3935912,9.94944094 C69.3290561,9.94944094 70.0875503,10.7014152 70.0875503,11.6295912 C70.0875503,12.5577673 69.3290561,13.3100784 68.3935912,13.3100784 C67.4581263,13.3100784 66.6992924,12.5577673 66.6992924,11.6295912 C66.6992924,10.7014152 67.4581263,9.94944094 68.3935912,9.94944094 Z M75.1700051,9.94944094 C76.1058097,9.94944094 76.8643039,10.7014152 76.8643039,11.6295912 C76.8643039,12.5577673 76.1058097,13.3100784 75.1700051,13.3100784 C74.2345402,13.3100784 73.476046,12.5577673 73.476046,11.6295912 C73.476046,10.7014152 74.2345402,9.94944094 75.1700051,9.94944094 Z M81.9465889,9.94944094 C82.8820538,9.94944094 83.640548,10.7014152 83.640548,11.6295912 C83.640548,12.5577673 82.8820538,13.3100784 81.9465889,13.3100784 C81.011124,13.3100784 80.2526298,12.5577673 80.2526298,11.6295912 C80.2526298,10.7014152 81.011124,9.94944094 81.9465889,9.94944094 Z" id="Combined-Shape" fill="#E6EBEF"></path>
                </g>
                <g id="Group-4" transform="translate(0.000000, 30.325911)">
                    <path d="M95.7883443,23.5342325 C95.7883443,26.1553613 93.6259734,28.3001049 90.9829624,28.3001049 L4.80538194,28.3001049 C2.16237092,28.3001049 0,26.1553613 0,23.5342325 L0,4.76620934 C0,2.14508057 2.16237092,0 4.80538194,0 L90.9829624,0 C93.6259734,0 95.7883443,2.14508057 95.7883443,4.76620934 L95.7883443,23.5342325 Z" id="Path" fill="#2B5592"></path>
                    <path d="M17.323424,8.08574427 C13.9525236,8.08574427 11.2092743,10.8063609 11.2092743,14.1497823 C11.2092743,17.4932037 13.9525236,20.2140905 17.323424,20.2140905 C20.6943243,20.2140905 23.4375736,17.4932037 23.4375736,14.1497823 C23.4375736,10.8063609 20.6943243,8.08574427 17.323424,8.08574427" id="Path" fill="#E5EBEF"></path>
                    <path d="M58.2287155,14.9904982 L58.3749159,14.9966634 C59.2422605,15.0701415 59.9230143,15.7913238 59.9230143,16.6706485 C59.9230143,17.5988245 59.1645201,18.3511357 58.2287155,18.3511357 C57.2932506,18.3511357 56.5347564,17.5984876 56.5347564,16.6706485 C56.5347564,15.7424724 57.2932506,14.9904982 58.2287155,14.9904982 Z M65.0052993,14.9904982 C65.9407642,14.9904982 66.6992584,15.7424724 66.6992584,16.6706485 C66.6992584,17.5988245 65.9407642,18.3511357 65.0052993,18.3511357 C64.0698344,18.3511357 63.3113401,17.5984876 63.3113401,16.6706485 C63.3113401,15.7424724 64.0698344,14.9904982 65.0052993,14.9904982 Z M71.7818831,14.9904982 C72.7173479,14.9904982 73.4758422,15.7424724 73.4758422,16.6706485 C73.4758422,17.5988245 72.7173479,18.3511357 71.7818831,18.3511357 C70.8460785,18.3511357 70.0875843,17.5984876 70.0875843,16.6706485 C70.0875843,15.7424724 70.8460785,14.9904982 71.7818831,14.9904982 Z M78.558297,14.9904982 C79.4937619,14.9904982 80.2525958,15.7424724 80.2525958,16.6706485 C80.2525958,17.5988245 79.4937619,18.3511357 78.558297,18.3511357 C77.6228321,18.3511357 76.8643379,17.5984876 76.8643379,16.6706485 C76.8643379,15.7424724 77.6228321,14.9904982 78.558297,14.9904982 Z M85.3348808,14.9904982 C86.2703457,14.9904982 87.0288399,15.7424724 87.0288399,16.6706485 C87.0288399,17.5988245 86.2703457,18.3511357 85.3348808,18.3511357 C84.3994159,18.3511357 83.640582,17.5984876 83.640582,16.6706485 C83.640582,15.7424724 84.3994159,14.9904982 85.3348808,14.9904982 Z M54.8405934,9.94944094 C55.7760583,9.94944094 56.5345526,10.7014152 56.5345526,11.6295912 C56.5345526,12.5577673 55.7760583,13.3100784 54.8405934,13.3100784 C53.9047889,13.3100784 53.1462946,12.5577673 53.1462946,11.6295912 C53.1462946,10.7014152 53.9047889,9.94944094 54.8405934,9.94944094 Z M61.6170074,9.94944094 C62.5524723,9.94944094 63.3113062,10.7014152 63.3113062,11.6295912 C63.3113062,12.5577673 62.5524723,13.3100784 61.6170074,13.3100784 C60.6815425,13.3100784 59.9230483,12.5577673 59.9230483,11.6295912 C59.9230483,10.7014152 60.6815425,9.94944094 61.6170074,9.94944094 Z M68.3935912,9.94944094 C69.3290561,9.94944094 70.0875503,10.7014152 70.0875503,11.6295912 C70.0875503,12.5577673 69.3290561,13.3100784 68.3935912,13.3100784 C67.4581263,13.3100784 66.6992924,12.5577673 66.6992924,11.6295912 C66.6992924,10.7014152 67.4581263,9.94944094 68.3935912,9.94944094 Z M75.1700051,9.94944094 C76.1058097,9.94944094 76.8643039,10.7014152 76.8643039,11.6295912 C76.8643039,12.5577673 76.1058097,13.3100784 75.1700051,13.3100784 C74.2345402,13.3100784 73.476046,12.5577673 73.476046,11.6295912 C73.476046,10.7014152 74.2345402,9.94944094 75.1700051,9.94944094 Z M81.9465889,9.94944094 C82.8820538,9.94944094 83.640548,10.7014152 83.640548,11.6295912 C83.640548,12.5577673 82.8820538,13.3100784 81.9465889,13.3100784 C81.011124,13.3100784 80.2526298,12.5577673 80.2526298,11.6295912 C80.2526298,10.7014152 81.011124,9.94944094 81.9465889,9.94944094 Z" id="Combined-Shape" fill="#E6EBEF"></path>
                </g>
                <g id="Group-4" transform="translate(0.000000, 60.325911)">
                    <path d="M95.7883443,23.5342325 C95.7883443,26.1553613 93.6259734,28.3001049 90.9829624,28.3001049 L4.80538194,28.3001049 C2.16237092,28.3001049 0,26.1553613 0,23.5342325 L0,4.76620934 C0,2.14508057 2.16237092,0 4.80538194,0 L90.9829624,0 C93.6259734,0 95.7883443,2.14508057 95.7883443,4.76620934 L95.7883443,23.5342325 Z" id="Path" fill="#2B5592"></path>
                    <path d="M17.323424,8.08574427 C13.9525236,8.08574427 11.2092743,10.8063609 11.2092743,14.1497823 C11.2092743,17.4932037 13.9525236,20.2140905 17.323424,20.2140905 C20.6943243,20.2140905 23.4375736,17.4932037 23.4375736,14.1497823 C23.4375736,10.8063609 20.6943243,8.08574427 17.323424,8.08574427" id="Path" fill="#E5EBEF"></path>
                    <path d="M58.2287155,14.9904982 L58.3749159,14.9966634 C59.2422605,15.0701415 59.9230143,15.7913238 59.9230143,16.6706485 C59.9230143,17.5988245 59.1645201,18.3511357 58.2287155,18.3511357 C57.2932506,18.3511357 56.5347564,17.5984876 56.5347564,16.6706485 C56.5347564,15.7424724 57.2932506,14.9904982 58.2287155,14.9904982 Z M65.0052993,14.9904982 C65.9407642,14.9904982 66.6992584,15.7424724 66.6992584,16.6706485 C66.6992584,17.5988245 65.9407642,18.3511357 65.0052993,18.3511357 C64.0698344,18.3511357 63.3113401,17.5984876 63.3113401,16.6706485 C63.3113401,15.7424724 64.0698344,14.9904982 65.0052993,14.9904982 Z M71.7818831,14.9904982 C72.7173479,14.9904982 73.4758422,15.7424724 73.4758422,16.6706485 C73.4758422,17.5988245 72.7173479,18.3511357 71.7818831,18.3511357 C70.8460785,18.3511357 70.0875843,17.5984876 70.0875843,16.6706485 C70.0875843,15.7424724 70.8460785,14.9904982 71.7818831,14.9904982 Z M78.558297,14.9904982 C79.4937619,14.9904982 80.2525958,15.7424724 80.2525958,16.6706485 C80.2525958,17.5988245 79.4937619,18.3511357 78.558297,18.3511357 C77.6228321,18.3511357 76.8643379,17.5984876 76.8643379,16.6706485 C76.8643379,15.7424724 77.6228321,14.9904982 78.558297,14.9904982 Z M85.3348808,14.9904982 C86.2703457,14.9904982 87.0288399,15.7424724 87.0288399,16.6706485 C87.0288399,17.5988245 86.2703457,18.3511357 85.3348808,18.3511357 C84.3994159,18.3511357 83.640582,17.5984876 83.640582,16.6706485 C83.640582,15.7424724 84.3994159,14.9904982 85.3348808,14.9904982 Z M54.8405934,9.94944094 C55.7760583,9.94944094 56.5345526,10.7014152 56.5345526,11.6295912 C56.5345526,12.5577673 55.7760583,13.3100784 54.8405934,13.3100784 C53.9047889,13.3100784 53.1462946,12.5577673 53.1462946,11.6295912 C53.1462946,10.7014152 53.9047889,9.94944094 54.8405934,9.94944094 Z M61.6170074,9.94944094 C62.5524723,9.94944094 63.3113062,10.7014152 63.3113062,11.6295912 C63.3113062,12.5577673 62.5524723,13.3100784 61.6170074,13.3100784 C60.6815425,13.3100784 59.9230483,12.5577673 59.9230483,11.6295912 C59.9230483,10.7014152 60.6815425,9.94944094 61.6170074,9.94944094 Z M68.3935912,9.94944094 C69.3290561,9.94944094 70.0875503,10.7014152 70.0875503,11.6295912 C70.0875503,12.5577673 69.3290561,13.3100784 68.3935912,13.3100784 C67.4581263,13.3100784 66.6992924,12.5577673 66.6992924,11.6295912 C66.6992924,10.7014152 67.4581263,9.94944094 68.3935912,9.94944094 Z M75.1700051,9.94944094 C76.1058097,9.94944094 76.8643039,10.7014152 76.8643039,11.6295912 C76.8643039,12.5577673 76.1058097,13.3100784 75.1700051,13.3100784 C74.2345402,13.3100784 73.476046,12.5577673 73.476046,11.6295912 C73.476046,10.7014152 74.2345402,9.94944094 75.1700051,9.94944094 Z M81.9465889,9.94944094 C82.8820538,9.94944094 83.640548,10.7014152 83.640548,11.6295912 C83.640548,12.5577673 82.8820538,13.3100784 81.9465889,13.3100784 C81.011124,13.3100784 80.2526298,12.5577673 80.2526298,11.6295912 C80.2526298,10.7014152 81.011124,9.94944094 81.9465889,9.94944094 Z" id="Combined-Shape" fill="#E6EBEF"></path>
                </g>
            </g>
        </g>
    </g>
</svg>