<?xml version="1.0" encoding="UTF-8"?>
<svg width="96px" height="70px" viewBox="0 0 96 70" version="1.1" xmlns="http://www.w3.org/2000/svg" xmlns:xlink="http://www.w3.org/1999/xlink">
    <!-- Generator: sketchtool 58 (101010) - https://sketch.com -->
    <title>95546106-F09D-49F3-B473-9FFC251A5696</title>
    <desc>Created with sketchtool.</desc>
    <defs>
        <polygon id="path-1" points="8.95861556e-05 0.329947926 95.1354306 0.329947926 95.1354306 69.5089967 8.95861556e-05 69.5089967"></polygon>
    </defs>
    <g id="Day-0" stroke="none" stroke-width="1" fill="none" fill-rule="evenodd">
        <g id="Prerequisites" transform="translate(-1018.000000, -1311.000000)">
            <g id="Group-9" transform="translate(320.000000, 1302.468961)">
                <g id="icon/dnaclogo" transform="translate(698.000000, 8.531039)">
                    <g transform="translate(0.000000, -0.000000)">
                        <g id="Group-3">
                            <mask id="mask-2" fill="white">
                                <use xlink:href="#path-1"></use>
                            </mask>
                            <g id="Clip-2"></g>
                            <path d="M8.95861554e-05,2.91913766 C1.45632923,0.439381625 3.70833798,-0.0857431818 6.43656201,0.0106181043 C11.2565728,0.181239464 16.0926058,-0.153814916 20.8565389,0.984839548 C30.0372576,3.17816387 37.4199297,8.06164776 42.8514544,15.685682 C49.9412764,25.6383 56.7774136,35.7703798 63.8788072,45.7150413 C68.9516126,52.818371 75.4726466,58.1536037 84.0507527,60.6669536 C86.0161421,61.2433532 88.0349389,61.5067996 90.0786591,61.5810597 C92.6947277,61.6765369 94.5782259,63.4030837 94.5248186,65.6830447 C94.4714113,67.9099629 92.5843526,69.5940753 90.0065592,69.5056704 C77.2359784,69.0680664 67.072565,63.6718344 59.6996842,53.3328872 C52.7576225,43.5995133 46.1262133,33.6460113 39.1271838,23.9541876 C33.300445,15.886361 25.6080104,10.3336524 15.6057091,8.37636903 C14.3096914,8.12264711 12.9673874,8.03954655 11.6437759,8.00330056 C9.60005571,7.9493736 8.94314565,8.64069953 8.94314565,10.6713589 C8.94136541,28.2055768 8.94225553,45.7406787 8.93869504,63.2757807 C8.93869504,63.845992 8.92000248,64.4206235 8.85591369,64.9872986 C8.60489928,67.2248253 7.36228892,68.6490274 5.33459093,69.06011 C3.25526586,69.4818011 1.61032034,68.6826213 0.472744386,66.709425 C0.348127301,66.4928332 0.31697303,66.1896045 8.95861554e-05,66.1224168 L8.95861554e-05,2.91913766 Z" id="Fill-1" fill="#2B5592" mask="url(#mask-2)"></path>
                        </g>
                        <path d="M90.7871666,1.20801566 C94.1833853,1.03264791 96.4282515,3.28585782 95.729668,6.16436891 C95.333834,7.79759182 93.9014214,9.08716479 92.1816225,9.11993553 C82.2035355,9.30593163 74.6257564,14.1622013 68.0339471,20.9581445 C65.573993,23.4956628 63.6580846,26.4388296 61.6545144,29.3129123 C61.1746336,30.0010978 60.9071294,30.311977 60.2989188,29.3722539 C59.1430477,27.587577 57.8660767,25.87907 56.6189288,24.152849 C56.3035269,23.716201 56.1715822,23.3619227 56.5348818,22.8570762 C59.8226529,18.2842291 62.8881063,13.5519569 67.3995283,9.94894672 C74.2245001,4.49837526 82.0119447,1.60746443 90.7871666,1.20801566" id="Fill-4" fill="#2B5592"></path>
                        <path d="M16.7750076,65.303894 C16.7878932,63.5484959 17.6944497,62.277255 19.4510737,61.8018529 C28.6505716,59.3119016 35.4666006,53.7454072 40.967895,46.4734188 C41.9810515,45.1347636 42.9559414,43.7689675 43.9080534,42.3909143 C44.2861649,41.8428449 44.5112096,41.7614224 44.9330544,42.364649 C46.2222779,44.2075982 47.5561459,46.0216555 48.882725,47.8409659 C49.1369253,48.1894189 49.2426143,48.4757108 48.9519695,48.8933292 C44.8364766,54.8179073 40.6034502,60.6207895 34.1336437,64.4966736 C30.4491068,66.7047105 26.546814,68.3821882 22.3310987,69.3583822 C19.2688512,70.0675455 16.7541821,68.1992066 16.7750076,65.303894" id="Fill-6" fill="#2B5592"></path>
                        <path d="M81.4863968,34.6844492 C81.4863968,29.4251464 81.4637682,24.164956 81.4956539,18.9056532 C81.5110825,16.4859301 83.9590808,14.9591789 86.3823935,15.8237461 C88.0682209,16.4246825 88.6637633,17.6301058 88.6627348,19.1231265 C88.6617062,22.7030029 88.6627348,26.2837671 88.6627348,29.8636436 C88.6627348,36.6266188 88.6575919,43.3887063 88.6678975,50.1516816 C88.6699348,51.1982162 88.513592,52.1923798 87.6259355,52.9726207 C86.5521076,53.9161884 85.2499371,54.1558529 83.8161095,53.7182434 C82.3359962,53.2664315 81.4966825,52.1524357 81.4925682,50.5963922 C81.4761111,45.2927071 81.4863968,39.989022 81.4863968,34.6844492" id="Fill-8" fill="#2B5592"></path>
                        <path d="M22.765003,34.7778256 C22.765003,39.8724714 22.7670915,44.9680064 22.7618703,50.0626522 C22.7618703,50.5045438 22.7754455,50.9553266 22.684596,51.387438 C22.3493925,52.9674006 20.7047028,54.0441224 18.8762256,53.9196459 C16.9642086,53.7889455 15.5941559,52.6073078 15.5910232,50.9411008 C15.5722267,40.1312048 15.5711825,29.3204196 15.5931117,18.5105237 C15.5962444,16.9261155 16.9381024,15.769373 18.7843318,15.5977733 C20.5021188,15.4386212 22.1144369,16.3384085 22.5759942,17.7850034 C22.7368083,18.2882442 22.7556048,18.8341626 22.7576933,19.3605204 C22.7702243,24.4996221 22.765003,29.6387239 22.765003,34.7778256" id="Fill-10" fill="#2B5592"></path>
                        <path d="M68.3049082,34.6548304 C68.3049082,32.2328527 68.2864003,29.810875 68.3110776,27.3898144 C68.3306137,25.3383323 69.7269356,23.9994124 71.8162773,23.9691492 C73.9560017,23.9379688 75.4592583,25.3163227 75.4695405,27.4127411 C75.4942178,32.2557794 75.4921614,37.0988177 75.471597,41.9427731 C75.4613148,44.1281471 73.9220704,45.5991249 71.7936564,45.5385983 C69.6940326,45.4780718 68.3162187,44.0584499 68.3069647,41.9198464 C68.2966825,39.4978687 68.3049082,37.076808 68.3049082,34.6548304" id="Fill-12" fill="#2B5592"></path>
                        <path d="M28.7617875,34.7545096 C28.7617875,32.3816714 28.7495573,30.007917 28.7648451,27.6350787 C28.7791138,25.4912789 30.2783429,23.9677152 32.3411844,23.9686309 C34.4203329,23.9686309 35.9134468,25.4528004 35.9256771,27.6442402 C35.9542145,32.3899168 35.9521761,37.1374256 35.9266963,41.8840183 C35.9154852,44.069045 34.4305248,45.5367234 32.3289541,45.5403987 C30.2100572,45.5449687 28.780133,44.0882842 28.7648451,41.8739406 C28.7495573,39.5011023 28.7617875,37.1273479 28.7617875,34.7545096" id="Fill-14" fill="#2B5592"></path>
                    </g>
                </g>
            </g>
        </g>
    </g>
</svg>