<?xml version="1.0" encoding="UTF-8"?>
<svg width="97px" height="130px" viewBox="0 0 97 130" version="1.1" xmlns="http://www.w3.org/2000/svg" xmlns:xlink="http://www.w3.org/1999/xlink">
    <!-- Generator: Sketch 58 (84663) - https://sketch.com -->
    <title>icons/icon-lock2</title>
    <desc>Created with Sketch.</desc>
    <g id="Day-0" stroke="none" stroke-width="1" fill="none" fill-rule="evenodd">
        <g id="Prerequisites" transform="translate(-320.000000, -1523.000000)" fill="#2B5592" fill-rule="nonzero">
            <path d="M330.892496,1562.04781 L330.892496,1575.62158 L330.014902,1575.62158 C324.491219,1575.62158 320,1580.24356 320,1585.92808 L320,1642.6935 C320,1648.37801 324.491219,1653 330.014902,1653 L406.985098,1653 C412.508781,1653 417,1648.37801 417,1642.6935 L417,1585.90151 C417,1580.217 412.508781,1575.59501 406.985098,1575.59501 L406.726982,1575.59501 L406.726982,1562.02125 C406.726982,1540.50511 389.717137,1523 368.809739,1523 C347.902342,1523.02656 330.892496,1540.53167 330.892496,1562.04781 Z M374.432926,1617.18299 C373.66933,1617.76734 373.465705,1618.32514 373.465705,1619.25479 C373.491158,1623.42497 373.491158,1627.56859 373.491158,1631.73877 L373.491158,1631.73877 C373.567518,1633.46528 372.727562,1635.16522 371.251276,1635.93551 C367.764188,1637.79483 364.277099,1635.19179 364.277099,1631.73877 L364.277099,1631.71221 C364.277099,1627.54203 364.277099,1623.37185 364.302553,1619.20167 C364.302553,1618.3517 364.12438,1617.7939 363.411691,1617.23611 C359.797336,1614.44713 358.601036,1609.6926 360.408213,1605.52242 C362.164484,1601.45849 366.466075,1599.06794 370.513134,1599.91791 C375.01835,1600.87413 378.149094,1604.64588 378.2,1609.3473 C378.2,1612.61438 376.952793,1615.27055 374.432926,1617.18299 Z M347.16,1562.00082 C347.16,1549.98146 356.744915,1540.22892 368.5,1540.22892 C380.28092,1540.22892 389.84,1550.00782 389.84,1562.00082 L389.84,1575.46988 L347.16,1575.46988 L347.16,1562.00082 Z" id="icons/icon-lock2"></path>
        </g>
    </g>
</svg>