<?xml version="1.0" encoding="UTF-8"?>
<svg width="91px" height="67px" viewBox="0 0 91 67" version="1.1" xmlns="http://www.w3.org/2000/svg" xmlns:xlink="http://www.w3.org/1999/xlink">
    <!-- Generator: Sketch 58 (84663) - https://sketch.com -->
    <title>icons/icon-communities-header</title>
    <desc>Created with Sketch.</desc>
    <g id="Day-0" stroke="none" stroke-width="1" fill="none" fill-rule="evenodd">
        <g id="Prerequisites" transform="translate(-1022.000000, -1959.000000)">
            <g id="icons/icon-communities-header" transform="translate(1021.000000, 1941.000000)">
                <rect id="Rectangle" fill="#FF0000" opacity="0" x="17.3979592" y="0" width="80.0306122" height="86"></rect>
                <g id="Group-10" transform="translate(0.497085, 18.429023)" fill="#2B5592">
                    <path d="M9.26480832,18.2973819 C9.26480832,13.2140401 13.4838273,9.14893617 18.7583644,9.14893617 C24.0329015,9.14893617 28.4025634,13.2140401 28.4025634,18.2973819 C28.4025634,23.3817046 24.0329015,27.4468085 18.7583644,27.4468085 C13.4838273,27.4468085 9.26480832,23.3817046 9.26480832,18.2973819" id="Fill-1"></path>
                    <path d="M30.1423593,30.76118 C21.0971662,34.8853388 15.9282073,43.8982301 15.784679,52.9111214 L15.784679,53.0638298 L1.71502503,53.0638298 C1.13994198,53.0638298 0.565828725,52.6057046 0.565828725,51.994871 L0.565828725,44.3573871 C0.565828725,36.1080378 6.88301413,29.3868044 14.6364525,29.3868044 C15.0670374,29.3868044 15.4976223,29.6922212 15.6411507,29.997638 L19.2303283,37.4834453 L22.8195059,29.997638 C23.6816456,28.3178456 28.4190498,29.997638 30.1423593,30.76118" id="Fill-3"></path>
                    <path d="M63.1984818,18.2973819 C63.1984818,13.2140401 67.4175008,9.14893617 72.6920379,9.14893617 C77.9655572,9.14893617 82.3362369,13.2140401 82.3362369,18.2973819 C82.3362369,23.3817046 77.9655572,27.4468085 72.6920379,27.4468085 C67.4175008,27.4468085 63.1984818,23.3817046 63.1984818,18.2973819" id="Fill-5"></path>
                    <path d="M91.0352165,44.2198317 L91.0352165,51.8433642 C91.0352165,52.453082 90.606711,53.0638298 89.89157,53.0638298 L75.7470281,53.0638298 C75.7470281,52.9103704 76.0326984,38.1205938 62.458532,31.2592086 C62.1728617,31.1067791 61.7443562,30.9533197 61.4586859,30.8019202 C63.3165081,29.734914 65.4600008,29.2765957 67.6025283,29.2765957 C68.0310338,29.2765957 68.4595393,29.5814546 68.6023744,29.8863136 L72.1751838,37.3584465 L75.7470281,29.8863136 C75.8898633,29.4290252 76.3183688,29.2765957 76.7468743,29.2765957 C84.7485389,29.2765957 91.0352165,35.9855515 91.0352165,44.2198317" id="Fill-7"></path>
                    <path d="M73.4977697,64.8282027 C73.4977697,65.4248528 73.0793068,65.8723404 72.3818687,65.8723404 L19.0796889,65.8723404 C18.5217384,65.8723404 17.9637879,65.4248528 17.9637879,64.8282027 L17.9637879,53.1894934 L17.9637879,52.4436807 C18.2427632,41.1032965 27.1727986,31.106383 38.7540414,31.106383 C39.1725042,31.106383 39.5909671,31.4047081 39.8699423,31.7030331 L45.8707377,44.2367176 L51.8705905,31.7030331 C52.0100781,31.2555455 52.428541,31.106383 52.8470039,31.106383 L52.9864915,31.106383 C64.4282466,31.106383 73.4977697,41.1032965 73.6372573,52.5928432 C73.4977697,52.8911683 73.4977697,53.636981 73.4977697,64.8282027" id="Fill-9"></path>
                    <path d="M31.8821553,14.6382979 C31.8821553,6.62595309 38.0355491,0 45.8000278,0 C53.4190338,0 59.7188899,6.47086873 59.7188899,14.6382979 C59.7188899,22.6506427 53.5654961,29.2765957 45.8000278,29.2765957 C38.1820114,29.1235931 31.8821553,22.6506427 31.8821553,14.6382979" id="Fill-11"></path>
                </g>
            </g>
        </g>
    </g>
</svg>