<svg xmlns="http://www.w3.org/2000/svg" viewBox="0 0 86 86">
  <g fill="none" fill-rule="evenodd" transform="translate(2 2)">
    <circle cx="41" cy="41" r="41" stroke="#DAE7ED" stroke-width="3"/>
    <path fill="#DAE7ED" d="M48.2013382,41.75369 L44.4605286,41.75369 L44.4605286,31.9567445 C44.4605286,31.485368 44.0861425,31.2025421 43.712265,31.2025421 L38.1941385,31.2025421 C37.7266644,31.2025421 37.4458748,31.5796433 37.4458748,31.9567445 L37.4458748,41.75369 L33.7050652,41.75369 C33.3306791,41.75369 33.0503981,42.2245541 33.3306791,42.50738 L40.4389294,51.2678096 C40.7192104,51.5506355 41.0935965,51.5506355 41.3738775,51.2678096 L48.4821278,42.50738 C48.8560053,42.2245541 48.6688122,41.75369 48.2013382,41.75369 M61.107996,26.5866391 L58.395731,29.3185733 C59.8917497,31.5796433 61.0143995,34.1230269 61.4818735,36.8549611 L65.3162796,36.8549611 C66.2517363,36.8549611 67,37.6086511 67,38.5508917 L67,43.2605577 C67,44.2027983 66.2517363,44.9564883 65.3162796,44.9564883 L61.388277,44.9564883 C60.8272064,47.6884225 59.7986618,50.2318061 58.3021345,52.4928761 L61.0143995,55.2248103 C61.6690666,55.884225 61.6690666,57.0145039 61.0143995,57.6739186 L57.7410639,60.9709922 C57.0863968,61.6304069 55.963747,61.6304069 55.3090799,60.9709922 L52.5973236,58.2395704 C50.3525326,59.7464381 47.8274607,60.8767169 45.1151957,61.3480934 L45.1151957,65.3045817 C45.1151957,66.2468223 44.3669321,67 43.4314754,67 L38.755209,67 C37.820261,67 37.0719973,66.2468223 37.0719973,65.3045817 L37.0719973,61.3480934 C34.3597324,60.782954 31.8346605,59.7464381 29.5898695,58.2395704 L26.8776045,60.9709922 C26.2229374,61.6304069 25.1002876,61.6304069 24.4461292,60.9709922 L20.892004,57.8619568 C20.2373369,57.2030545 20.2373369,56.0722633 20.892004,55.4128486 L23.604269,52.6809144 C22.1077417,50.4203567 20.9856005,47.8769731 20.5181265,45.1450389 L16.6832117,45.1450389 C15.7482637,45.1450389 15,44.3913489 15,43.4496207 L15,38.7389299 C15,37.7966893 15.7482637,37.0435117 16.6832117,37.0435117 L20.6112144,37.0435117 C21.1727936,34.3115775 22.2013382,31.7681939 23.6978655,29.5071239 L20.9856005,26.775702 C20.3309334,26.115775 20.3309334,24.9849837 20.9856005,24.3260814 L24.2589361,21.0290078 C24.9136032,20.3695931 26.0357443,20.3695931 26.6904114,21.0290078 L29.4026764,23.760942 C31.6474674,22.2535619 34.1725393,21.1227707 36.8848043,20.6519066 L36.8848043,16.6954183 C36.8848043,15.75369 37.6330679,15 38.5685246,15 L43.2442823,15 C44.179739,15 44.9280027,15.75369 44.9280027,16.6954183 L44.9280027,20.6519066 C47.6402676,21.2175584 50.1653395,22.2535619 52.4096218,23.760942 L55.1218868,21.0290078 C55.7770626,20.3695931 56.8992037,20.3695931 57.5538708,21.0290078 L60.8272064,24.3260814 C61.7626631,24.7969455 61.7626631,25.9272244 61.107996,26.5866391"/>
  </g>
</svg>
