<svg xmlns="http://www.w3.org/2000/svg" viewBox="0 0 86 86">
  <g fill="none" fill-rule="evenodd" transform="translate(2 2)">
    <circle cx="41" cy="41" r="41" stroke="#DAE7ED" stroke-width="3"/>
    <path fill="#DAE7ED" d="M34.6705234,42.0307806 L39.1666441,34.3659756 C39.5564133,33.7019101 40.4252313,33.4708643 41.1006953,33.8533905 C41.7812609,34.2328565 42.0159387,35.0790044 41.6261695,35.7430699 L38.3468023,41.3345829 L43.0796414,41.3345829 C43.5949122,41.3345829 44.0693695,41.6074516 44.3193524,42.0481218 C44.5703556,42.4877719 44.5550505,43.0258588 44.2831304,43.4517379 L39.5956963,50.7850203 C39.3258168,51.2057991 38.8641138,51.437865 38.3922073,51.437865 C38.1355922,51.437865 37.8759161,51.3705404 37.6422587,51.2277306 C36.9769981,50.8217428 36.7759915,49.9679443 37.1902488,49.3186698 L40.523694,44.1025425 L35.9010514,44.1025425 C35.3949636,44.1025425 34.9271385,43.8414046 34.6746048,43.4129753 C34.4210507,42.9865861 34.4200304,42.45921 34.6705234,42.0307806 L34.6705234,42.0307806 Z M36.6846712,28.9086017 L39.3319389,28.9086017 L39.3319389,25.1037411 L36.6846712,25.1037411 L36.6846712,28.9086017 Z M15.4172502,55.7119578 C16.2003598,55.7119578 16.8350102,55.0917553 16.8350102,54.3267029 L16.8350102,45.2980644 L21.1780801,45.2980644 L21.1780801,54.3267029 C21.1780801,54.6113024 21.4122478,54.8408181 21.702534,54.8408181 L35.3745568,54.8408181 L40.381867,60.8123071 C40.4818601,60.9321654 40.63236,61 40.7884718,61 L56.4159729,61 C56.7052388,61 56.9414471,60.7715043 56.9414471,60.4879249 L56.9414471,52.9220667 L61.1636069,52.9220667 L61.1636069,57.3552903 C61.1636069,57.6383597 61.3977746,57.8688955 61.6890812,57.8688955 L66.0443951,57.8688955 C66.2622374,57.8688955 66.457122,57.7373065 66.5336473,57.5378828 C71.9934775,43.6174993 66.7178184,35.0366715 66.490283,34.6776069 C66.3953915,34.5276566 66.2265255,34.4358504 66.0443951,34.4358504 L61.6890812,34.4358504 C61.3982848,34.4358504 61.1636069,34.6653661 61.1636069,34.9484355 L61.1636069,38.9241578 L56.9414471,38.9241578 L56.9414471,33.7661745 C56.9414471,33.4831051 56.705749,33.2535894 56.4159729,33.2535894 L49.2108541,33.2535894 L49.2108541,29.4211869 C49.2108541,29.1376074 48.9756662,28.9075817 48.6843596,28.9075817 L42.1669488,28.9075817 L42.1669488,25.1032311 L47.5293366,25.1032311 C48.6894613,25.1032311 49.6312335,24.1851682 49.6312335,23.0523806 C49.6312335,21.919083 48.6889511,21 47.5293366,21 L28.2714719,21 C27.1113472,21 26.1711055,21.919083 26.1711055,23.0523806 C26.1711055,24.1851682 27.1118574,25.1032311 28.2714719,25.1032311 L33.8491511,25.1032311 L33.8491511,28.9075817 L28.2714719,28.9075817 C27.9806755,28.9075817 27.7459977,29.1370974 27.7459977,29.4211869 L27.7459977,33.2535894 L21.7020238,33.2535894 C21.4122478,33.2535894 21.17757,33.4825951 21.17757,33.7661745 L21.17757,42.5285747 L16.8350102,42.5285747 L16.8350102,33.774335 C16.8350102,33.0092826 16.2003598,32.3895902 15.4172502,32.3895902 C14.6346507,32.3895902 14,33.0092826 14,33.774335 L14,54.3267029 C14,55.0917553 14.6341406,55.7119578 15.4172502,55.7119578 L15.4172502,55.7119578 Z"/>
  </g>
</svg>
