<svg xmlns="http://www.w3.org/2000/svg" viewBox="0 0 45 45">
  <g fill="none" fill-rule="evenodd">
    <rect width="45" height="45" fill="#FF0000" opacity="0"/>
    <path fill="#829AB7" d="M43.6958118,10.1857689 L33.8441646,10.1857689 L27.6792245,16.3508034 L23.1524384,16.3508034 L23.1524384,1.30420811 L41.0881241,1.30420811 C42.5224557,1.30420811 43.6958118,2.47758225 43.6958118,3.91193573 L43.6958118,10.1857689 Z M43.6958118,21.8485845 L28.6480697,21.8485845 L28.6480697,17.2260138 L34.3847072,11.489977 L43.6958118,11.489977 L43.6958118,21.8485845 Z M43.6958118,33.510023 L34.3847072,33.510023 L28.6480697,27.7746748 L28.6480697,23.1521041 L43.6958118,23.1521041 L43.6958118,33.510023 Z M43.6958118,41.0880643 C43.6958118,42.5224178 42.5224557,43.6957919 41.0874355,43.6957919 L23.1524384,43.6957919 L23.1524384,28.648508 L27.6792245,28.648508 L33.8441646,34.8142311 L43.6958118,34.8142311 L43.6958118,41.0880643 Z M21.8475616,43.6957919 L3.91187587,43.6957919 C2.47754434,43.6957919 1.30418815,42.5224178 1.30418815,41.0880643 L1.30418815,34.8142311 L11.1558354,34.8142311 L17.3207755,28.648508 L21.8475616,28.648508 L21.8475616,43.6957919 Z M1.30418815,23.1521041 L16.3519303,23.1521041 L16.3519303,27.7746748 L10.6152928,33.510023 L1.30418815,33.510023 L1.30418815,23.1521041 Z M1.30418815,11.489977 L10.6152928,11.489977 L16.3519303,17.2260138 L16.3519303,21.8485845 L1.30418815,21.8485845 L1.30418815,11.489977 Z M17.6547413,27.3449885 L27.3445701,27.3449885 L27.3445701,17.6550115 L17.6547413,17.6550115 L17.6547413,27.3449885 Z M1.30418815,3.91193573 C1.30418815,2.47689365 2.47823293,1.30351951 3.91256446,1.30351951 L21.8475616,1.30351951 L21.8475616,16.3508034 L17.3207755,16.3508034 L11.156524,10.1857689 L1.30418815,10.1857689 L1.30418815,3.91193573 Z M41.0881241,0 L3.91187587,0 C1.76072287,0 0,1.76006121 0,3.91193573 L0,41.0880643 C0,43.2392502 1.76072287,45 3.91187587,45 L41.0874355,45 C43.2399657,45 45,43.2392502 45,41.0880643 L45,3.91193573 C45,1.76006121 43.2399657,0 41.0881241,0 L41.0881241,0 Z"/>
  </g>
</svg>
