<svg xmlns="http://www.w3.org/2000/svg" viewBox="0 0 80 80">
  <g fill="none" fill-rule="evenodd">
    <circle cx="40" cy="40" r="40" fill="#00BCEB"/>
    <path fill="#FFFFFF" d="M33.6705234,41.0307806 L38.1666441,33.3659756 C38.5564133,32.7019101 39.4252313,32.4708643 40.1006953,32.8533905 C40.7812609,33.2328565 41.0159387,34.0790044 40.6261695,34.7430699 L37.3468023,40.3345829 L42.0796414,40.3345829 C42.5949122,40.3345829 43.0693695,40.6074516 43.3193524,41.0481218 C43.5703556,41.4877719 43.5550505,42.0258588 43.2831304,42.4517379 L38.5956963,49.7850203 C38.3258168,50.2057991 37.8641138,50.437865 37.3922073,50.437865 C37.1355922,50.437865 36.8759161,50.3705404 36.6422587,50.2277306 C35.9769981,49.8217428 35.7759915,48.9679443 36.1902488,48.3186698 L39.523694,43.1025425 L34.9010514,43.1025425 C34.3949636,43.1025425 33.9271385,42.8414046 33.6746048,42.4129753 C33.4210507,41.9865861 33.4200304,41.45921 33.6705234,41.0307806 L33.6705234,41.0307806 Z M35.6846712,27.9086017 L38.3319389,27.9086017 L38.3319389,24.1037411 L35.6846712,24.1037411 L35.6846712,27.9086017 Z M14.4172502,54.7119578 C15.2003598,54.7119578 15.8350102,54.0917553 15.8350102,53.3267029 L15.8350102,44.2980644 L20.1780801,44.2980644 L20.1780801,53.3267029 C20.1780801,53.6113024 20.4122478,53.8408181 20.702534,53.8408181 L34.3745568,53.8408181 L39.381867,59.8123071 C39.4818601,59.9321654 39.63236,60 39.7884718,60 L55.4159729,60 C55.7052388,60 55.9414471,59.7715043 55.9414471,59.4879249 L55.9414471,51.9220667 L60.1636069,51.9220667 L60.1636069,56.3552903 C60.1636069,56.6383597 60.3977746,56.8688955 60.6890812,56.8688955 L65.0443951,56.8688955 C65.2622374,56.8688955 65.457122,56.7373065 65.5336473,56.5378828 C70.9934775,42.6174993 65.7178184,34.0366715 65.490283,33.6776069 C65.3953915,33.5276566 65.2265255,33.4358504 65.0443951,33.4358504 L60.6890812,33.4358504 C60.3982848,33.4358504 60.1636069,33.6653661 60.1636069,33.9484355 L60.1636069,37.9241578 L55.9414471,37.9241578 L55.9414471,32.7661745 C55.9414471,32.4831051 55.705749,32.2535894 55.4159729,32.2535894 L48.2108541,32.2535894 L48.2108541,28.4211869 C48.2108541,28.1376074 47.9756662,27.9075817 47.6843596,27.9075817 L41.1669488,27.9075817 L41.1669488,24.1032311 L46.5293366,24.1032311 C47.6894613,24.1032311 48.6312335,23.1851682 48.6312335,22.0523806 C48.6312335,20.919083 47.6889511,20 46.5293366,20 L27.2714719,20 C26.1113472,20 25.1711055,20.919083 25.1711055,22.0523806 C25.1711055,23.1851682 26.1118574,24.1032311 27.2714719,24.1032311 L32.8491511,24.1032311 L32.8491511,27.9075817 L27.2714719,27.9075817 C26.9806755,27.9075817 26.7459977,28.1370974 26.7459977,28.4211869 L26.7459977,32.2535894 L20.7020238,32.2535894 C20.4122478,32.2535894 20.17757,32.4825951 20.17757,32.7661745 L20.17757,41.5285747 L15.8350102,41.5285747 L15.8350102,32.774335 C15.8350102,32.0092826 15.2003598,31.3895902 14.4172502,31.3895902 C13.6346507,31.3895902 13,32.0092826 13,32.774335 L13,53.3267029 C13,54.0917553 13.6341406,54.7119578 14.4172502,54.7119578 L14.4172502,54.7119578 Z"/>
  </g>
</svg>
