<svg xmlns="http://www.w3.org/2000/svg" viewBox="0 0 33 45">
  <g fill="none" fill-rule="evenodd" transform="translate(-6)">
    <rect width="45" height="45" fill="#FF0000" opacity="0"/>
    <path fill="#829AB7" d="M12.5002674,37.6307387 L25.5001146,37.6307387 L25.5001146,36.6311206 L12.5002674,36.6311206 L12.5002674,37.6307387 Z M12.5002674,30.5433504 L32.500191,30.5433504 L32.500191,29.5437323 L12.5002674,29.5437323 L12.5002674,30.5433504 Z M12.5002674,23.4566496 L32.500191,23.4566496 L32.500191,22.4563441 L12.5002674,22.4563441 L12.5002674,23.4566496 Z M12.5002674,16.3699488 L32.500191,16.3699488 L32.500191,15.3703308 L12.5002674,15.3703308 L12.5002674,16.3699488 Z M7.00030555,6.00045833 L13.9996944,6.00045833 L13.9996944,9 L31.0000764,9 L31.0000764,6.00045833 L37.9994653,6.00045833 L37.9994653,43.9996944 L7.00030555,43.9996944 L7.00030555,6.00045833 Z M22.4998854,1.00030555 C24.499809,1.00030555 25.9999236,3.00022917 25.9999236,4.00053472 L29.9997708,4.00053472 L29.9997708,8.00038194 L15,8.00038194 L15,4.00053472 L18.9998472,4.00053472 C18.9998472,3.00022917 20.4999618,1.00030555 22.4998854,1.00030555 L22.4998854,1.00030555 Z M22.4998854,0 C20.5467115,0 18.9187228,1.25811626 18.2965396,3.00022917 L13.9996944,3.00022917 L13.9996944,5.00084027 L6,5.00084027 L6,45 L38.9997708,45 L38.9997708,5.00084027 L31.0000764,5.00084027 L31.0000764,3.00022917 L26.7032312,3.00022917 C26.081048,1.25811626 24.4530594,0 22.4998854,0 L22.4998854,0 Z"/>
  </g>
</svg>
