<svg xmlns="http://www.w3.org/2000/svg" viewBox="0 0 80 80">
  <g fill="none" fill-rule="evenodd">
    <circle cx="40" cy="40" r="40" fill="#00BCEB"/>
    <path fill="#FFFFFF" d="M47.2013382,40.75369 L43.4605286,40.75369 L43.4605286,30.9567445 C43.4605286,30.485368 43.0861425,30.2025421 42.712265,30.2025421 L37.1941385,30.2025421 C36.7266644,30.2025421 36.4458748,30.5796433 36.4458748,30.9567445 L36.4458748,40.75369 L32.7050652,40.75369 C32.3306791,40.75369 32.0503981,41.2245541 32.3306791,41.50738 L39.4389294,50.2678096 C39.7192104,50.5506355 40.0935965,50.5506355 40.3738775,50.2678096 L47.4821278,41.50738 C47.8560053,41.2245541 47.6688122,40.75369 47.2013382,40.75369 M60.107996,25.5866391 L57.395731,28.3185733 C58.8917497,30.5796433 60.0143995,33.1230269 60.4818735,35.8549611 L64.3162796,35.8549611 C65.2517363,35.8549611 66,36.6086511 66,37.5508917 L66,42.2605577 C66,43.2027983 65.2517363,43.9564883 64.3162796,43.9564883 L60.388277,43.9564883 C59.8272064,46.6884225 58.7986618,49.2318061 57.3021345,51.4928761 L60.0143995,54.2248103 C60.6690666,54.884225 60.6690666,56.0145039 60.0143995,56.6739186 L56.7410639,59.9709922 C56.0863968,60.6304069 54.963747,60.6304069 54.3090799,59.9709922 L51.5973236,57.2395704 C49.3525326,58.7464381 46.8274607,59.8767169 44.1151957,60.3480934 L44.1151957,64.3045817 C44.1151957,65.2468223 43.3669321,66 42.4314754,66 L37.755209,66 C36.820261,66 36.0719973,65.2468223 36.0719973,64.3045817 L36.0719973,60.3480934 C33.3597324,59.782954 30.8346605,58.7464381 28.5898695,57.2395704 L25.8776045,59.9709922 C25.2229374,60.6304069 24.1002876,60.6304069 23.4461292,59.9709922 L19.892004,56.8619568 C19.2373369,56.2030545 19.2373369,55.0722633 19.892004,54.4128486 L22.604269,51.6809144 C21.1077417,49.4203567 19.9856005,46.8769731 19.5181265,44.1450389 L15.6832117,44.1450389 C14.7482637,44.1450389 14,43.3913489 14,42.4496207 L14,37.7389299 C14,36.7966893 14.7482637,36.0435117 15.6832117,36.0435117 L19.6112144,36.0435117 C20.1727936,33.3115775 21.2013382,30.7681939 22.6978655,28.5071239 L19.9856005,25.775702 C19.3309334,25.115775 19.3309334,23.9849837 19.9856005,23.3260814 L23.2589361,20.0290078 C23.9136032,19.3695931 25.0357443,19.3695931 25.6904114,20.0290078 L28.4026764,22.760942 C30.6474674,21.2535619 33.1725393,20.1227707 35.8848043,19.6519066 L35.8848043,15.6954183 C35.8848043,14.75369 36.6330679,14 37.5685246,14 L42.2442823,14 C43.179739,14 43.9280027,14.75369 43.9280027,15.6954183 L43.9280027,19.6519066 C46.6402676,20.2175584 49.1653395,21.2535619 51.4096218,22.760942 L54.1218868,20.0290078 C54.7770626,19.3695931 55.8992037,19.3695931 56.5538708,20.0290078 L59.8272064,23.3260814 C60.7626631,23.7969455 60.7626631,24.9272244 60.107996,25.5866391"/>
  </g>
</svg>
