<svg xmlns="http://www.w3.org/2000/svg" viewBox="0 0 80 80">
  <g fill="none" fill-rule="evenodd">
    <circle cx="40" cy="40" r="40" fill="#00BCEB"/>
    <g fill="#FFFFFF" transform="translate(21 18)">
      <path d="M0.00779924164,11.8956588 C0.00779924164,12.2579552 0.127621376,12.6571648 0.260655838,12.8718083 C0.463396712,13.1967358 0.782770539,13.4081893 1.03744952,13.5038902 C1.25932549,13.5904768 1.40876146,13.6237443 1.61560271,13.63058 L10.9735748,13.63058 L10.9913431,13.63058 C11.2674351,13.6365044 11.715743,13.6957478 12.2200894,13.251422 C12.7330922,12.7979819 12.7330922,12.2278777 12.7258026,11.859657 C12.7180575,11.3547206 12.3399116,10.8780388 11.8501443,10.7554504 C11.3599214,10.6328621 10.8022701,10.8757602 10.5580699,11.3173517 L2.320412,11.3173517 L2.320412,3.22241944 L8.10103271,3.22241944 C8.71198891,3.23062238 9.2737406,2.67692409 9.2737406,2.06580524 C9.2737406,1.4546864 8.71198891,0.900532392 8.10103271,0.909090909 L1.74225881,0.909090909 C1.25112474,0.909090909 0.590964004,1.09968149 0.260655838,1.61373224 C-0.0691967309,2.12823871 0.00779924164,2.52516975 0.00779924164,2.64365662 L0.00779924164,11.8956588 Z"/>
      <path d="M6.34399111 4.72598376C5.81752235 4.41022638 5.03922371 4.58331151 4.71058804 5.08914946 4.38195237 5.59543465 4.56209685 6.34323398 5.0890311 6.65899135 6.49062034 7.49445137 7.48490616 8.32991139 8.70681641 8.96455687 9.17835739 9.20741276 9.81840561 9.09023368 10.1647299 8.69844407L16.0713276 1.88819264C16.3883261 1.54560036 16.4558221 1.00979677 16.2328525.604142469 16.009883.198488167 15.5113436-.0497346964 15.0374752.00840759601 14.734907.0473182071 14.4504928.2034079 14.262435.434188076L9.03917599 6.46399105C8.28415184 5.98409351 7.55891901 5.45007892 6.34399111 4.72598376M19.3333238 20.0001307C18.701311 20.0334313 18.1534715 20.7128715 18.1829559 21.4266865 18.2124403 22.1405015 18.8144931 22.7597858 19.4465059 22.725948L38.775921 22.725948C39.4136405 22.7361531 40 22.0830311 40 21.3627708 40 20.6425105 39.4136405 19.9893885 38.775921 20.0001307L19.3333238 20.0001307zM37.8797953 8.17773134C38.4858294 8.13673714 39.0016741 7.94507597 39.0909091 6.82652004 39.0446214 5.92624491 38.5702924 5.50459032 37.8797953 5.45454545 33.6580759 5.51204381 22.403975 5.47690593 18.4838411 5.47584114 17.8439263 5.4651933 17.2727273 6.11258216 17.2727273 6.82652004 17.2727273 7.54045793 17.8439263 8.18784679 18.4838411 8.17773134 22.7394411 8.19902703 34.065598 8.12768648 37.8797953 8.17773134M38.775921 34.5455852L19.3333238 34.5455852C18.701311 34.5788859 18.1534715 35.258326 18.1829559 35.9721411 18.2124403 36.6859561 18.8144931 37.3052403 19.4465059 37.2714026L38.775921 37.2714026C39.4136405 37.2816076 40 36.6284857 40 35.9082253 40 35.187965 39.4136405 34.5348431 38.775921 34.5455852M15.9468771 30.9174988C15.6443102 30.9564108 15.3598973 31.112506 15.1713749 31.3432943L9.94813942 37.3733095C9.19358415 36.893395 8.4683546 36.3593616 7.25343218 35.635241 6.72650031 35.3194725 5.94867066 35.4925637 5.61957099 35.9984195 5.2909368 36.5047225 5.47154596 37.2525481 5.99801234 37.5683166 7.40006075 38.403806 8.3938766 39.2388482 9.61578133 39.873516 10.0877857 40.1163805 10.727831 39.9996445 11.0741537 39.6078411L16.9807248 32.79735C17.2977218 32.4547457 17.364752 31.9189232 17.1417835 31.5132546 16.918815 31.1075861 16.4207434 30.8593545 15.9468771 30.9174988"/>
      <path d="M11.8502704 40.7554504C11.3600462 40.6328621 10.8023935 40.8757602 10.5581926 41.3173517L2.32051278 41.3173517 2.32051278 33.2224194 8.10114887 33.2224194C8.7121067 33.2306224 9.27385988 32.6764684 9.27385988 32.0658052 9.27385988 31.4546864 8.7121067 30.9005324 8.10114887 30.9090909L1.74190246 30.9090909C1.25122268 30.9090909.591060184 31.0996815.260751139 31.6137322-.0695579055 32.1282387.00789387054 32.5251697.00789387054 32.6436566L.00789387054 41.8956588C.00789387054 42.2579552.127716324 42.6571648.260751139 42.8718083.463492553 43.1967358.782867229 43.4081893 1.03754689 43.5038902 1.25896785 43.5904768 1.40885982 43.6237443 1.61570162 43.63058L10.9736986 43.63058 10.9914669 43.63058C11.2675597 43.6365044 11.7158688 43.6957478 12.2202166 43.251422 12.7327651 42.7979819 12.7327651 42.2278777 12.7259311 41.859657 12.7181859 41.3542649 12.340039 40.8780388 11.8502704 40.7554504M15.0377862 15.4629533C14.7352193 15.5018653 14.4508064 15.6579605 14.262284 15.8887488L9.03904851 21.918764C8.28449324 21.4388496 7.55926369 20.9048162 6.34434127 20.1806955 5.8174094 19.8649271 5.03957975 20.0380183 4.71048008 20.543874 4.38184589 21.050177 4.56245505 21.7980027 5.08892143 22.1137712 6.49096984 22.9492606 7.48478569 23.7843027 8.70669042 24.4189706 9.17869477 24.661835 9.81874011 24.5450991 10.1650628 24.1532957L16.0716339 17.3428045C16.3886309 17.0002002 16.4556611 16.4643778 16.2326926 16.0587092 16.0097241 15.6530406 15.5116525 15.404809 15.0377862 15.4629533"/>
      <path d="M0.00779924164,27.3502042 C0.00779924164,27.7125006 0.127621376,28.1117102 0.260655838,28.3263538 C0.463396712,28.6512813 0.782770539,28.8627348 1.03744952,28.9584357 C1.25932549,29.0450223 1.40876146,29.0782897 1.61560271,29.0851255 L10.9735748,29.0851255 L10.9913431,29.0851255 C11.2674351,29.0910498 11.715743,29.1502933 12.2200894,28.7059675 C12.7330922,28.2525273 12.7330922,27.6824232 12.7258026,27.3142024 C12.7180575,26.809266 12.3399116,26.3325842 11.8501443,26.2099959 C11.3599214,26.0874075 10.8022701,26.3303056 10.5580699,26.7718971 L2.320412,26.7718971 L2.320412,18.6769649 L8.10103271,18.6769649 C8.71198891,18.6851678 9.2737406,18.1314695 9.2737406,17.5203507 C9.2737406,16.9092319 8.71198891,16.3550778 8.10103271,16.3636364 L1.74225881,16.3636364 C1.25112474,16.3636364 0.590964004,16.5542269 0.260655838,17.0682777 C-0.0691967309,17.5827842 0.00779924164,17.9797152 0.00779924164,18.0982021 L0.00779924164,27.3502042 Z"/>
    </g>
  </g>
</svg>
