<svg xmlns="http://www.w3.org/2000/svg" viewBox="0 0 45 45">
  <g fill="none" fill-rule="evenodd" transform="translate(-1)">
    <rect width="45" height="45" fill="#FF0000" opacity="0"/>
    <path fill="#829AB7" d="M33.8374122,31.7195878 L42.4749797,31.7195878 C39.2501824,38.2950608 32.7330878,42.9708041 25.055723,43.56675 C29.2954527,40.1874932 32.1973446,36.0937095 33.8374122,31.7195878 L33.8374122,31.7195878 Z M23.9556554,31.7195878 L32.6108581,31.7195878 C30.9726149,35.8723581 28.115723,39.7441824 23.9556554,42.9543851 L23.9556554,31.7195878 Z M14.1815338,31.7195878 L22.8014662,31.7195878 L22.8014662,42.9355338 C18.6572095,39.7295878 15.8155203,35.8656689 14.1815338,31.7195878 L14.1815338,31.7195878 Z M4.31802027,31.7195878 L12.9555878,31.7195878 C14.593223,36.0931014 17.4853851,40.1874932 21.7196419,43.56675 C14.0550473,42.9708041 7.54220946,38.2950608 4.31802027,31.7195878 L4.31802027,31.7195878 Z M33.9456554,13.9749932 L42.9079527,13.9749932 C44.023223,16.5564122 44.6392365,19.4011419 44.6392365,22.3966824 C44.6392365,25.2949257 44.0670068,28.0484392 43.0161959,30.5653986 L34.2338986,30.5653986 C35.1113986,27.8343851 35.5218716,25.0139797 35.4604527,22.1984392 C35.3990338,19.4175608 34.8778851,16.6433716 33.9456554,13.9749932 L33.9456554,13.9749932 Z M23.9556554,13.9749932 L32.7197095,13.9749932 C33.6993716,16.6488446 34.2454527,19.4260743 34.3062635,22.2160743 C34.3682905,25.0303986 33.9438311,27.8459392 33.0261959,30.5660068 L23.9556554,30.5660068 L23.9556554,13.9749932 Z M14.0738986,13.9749932 L22.8014662,13.9749932 L22.8014662,30.5660068 L13.7674122,30.5660068 C12.849777,27.8459392 12.4253176,25.0310068 12.4867365,22.2160743 C12.5481554,19.4260743 13.0948446,16.6488446 14.0738986,13.9749932 L14.0738986,13.9749932 Z M3.8850473,13.9749932 L12.8473446,13.9749932 C11.915723,16.6439797 11.3933581,19.4169527 11.3325473,22.1984392 C11.2711284,25.0145878 11.6822095,27.833777 12.5591014,30.5660068 L3.77680405,30.5660068 C2.72599324,28.0484392 2.15376351,25.2949257 2.15376351,22.3966824 C2.15376351,19.4011419 2.77038514,16.5564122 3.8850473,13.9749932 L3.8850473,13.9749932 Z M22.8014662,1.85783108 L22.8014662,12.8214122 L14.5245068,12.8214122 C16.2436284,8.72884459 19.0220743,4.9415473 22.8014662,1.85783108 L22.8014662,1.85783108 Z M23.9556554,1.83897973 C27.7514662,4.9269527 30.5445068,8.7215473 32.2684932,12.8214122 L23.9556554,12.8214122 L23.9556554,1.83897973 Z M25.0192365,1.22600676 C32.6224122,1.80249324 39.0987635,6.35600676 42.3667365,12.8214122 L33.5126824,12.8214122 C31.7813986,8.49472297 28.9245068,4.49397973 25.0192365,1.22600676 L25.0192365,1.22600676 Z M21.7555203,1.22600676 C17.8563311,4.49397973 14.9915338,8.49472297 13.2620743,12.8214122 L4.42626351,12.8214122 C7.69362838,6.35600676 14.1645068,1.80249324 21.7555203,1.22600676 L21.7555203,1.22600676 Z M23.3785608,6.08108107e-05 C11.0242365,6.08108107e-05 0.999574324,10.0210743 0.999574324,22.3966824 C0.999574324,34.7516149 11.0236284,44.7933041 23.3785608,44.7933041 C35.7535608,44.7933041 45.7934257,34.7516149 45.7934257,22.3966824 C45.7934257,10.0210743 35.7529527,6.08108107e-05 23.3785608,6.08108107e-05 L23.3785608,6.08108107e-05 Z"/>
  </g>
</svg>
